<?xml version="1.0" encoding="UTF-8"?>
<svg version="1.1" xmlns="http://www.w3.org/2000/svg" width="442" height="292">
<path d="M0 0 C145.86 0 291.72 0 442 0 C442 96.36 442 192.72 442 292 C296.14 292 150.28 292 0 292 C0 195.64 0 99.28 0 0 Z " fill="#FBFBFC" transform="translate(0,0)"/>
<path d="M0 0 C1.22062637 -0.0098568 1.22062637 -0.0098568 2.46591187 -0.01991272 C5.1411754 -0.03952119 7.81638338 -0.05127492 10.49169922 -0.0612793 C11.86605951 -0.06739259 11.86605951 -0.06739259 13.26818466 -0.07362938 C18.10977702 -0.09442813 22.95134148 -0.10876146 27.79296875 -0.11816406 C32.79451598 -0.12926865 37.79562324 -0.16373238 42.79701424 -0.20333576 C46.64542483 -0.22943904 50.49372896 -0.23784984 54.34222031 -0.24144554 C56.18664425 -0.24632089 58.03106315 -0.25796179 59.87540054 -0.27648354 C62.45114889 -0.30076127 65.02573543 -0.29993218 67.6015625 -0.29296875 C68.36321716 -0.30577881 69.12487183 -0.31858887 69.90960693 -0.33178711 C73.20499443 -0.29926575 75.33696577 -0.03516996 78.1434021 1.74536133 C80.1883683 4.99972843 80.23262007 7.82542481 80.18896484 11.55322266 C80.19597412 12.29049088 80.2029834 13.02775909 80.21020508 13.78736877 C80.22781139 16.2262236 80.21614059 18.66391635 80.20263672 21.1027832 C80.20533405 22.80991334 80.20921849 24.51704197 80.2142334 26.22416687 C80.22013462 29.80958625 80.21155736 33.39460741 80.19287109 36.97998047 C80.17027066 41.53447283 80.18307885 46.08801237 80.20716095 50.64246845 C80.22176551 54.17484929 80.2169435 57.70701268 80.20664978 61.23940086 C80.20401276 62.91561182 80.20714354 64.59184363 80.21656799 66.26803017 C80.30007896 85.32335491 76.53948947 101.60857958 63.03076172 115.88793945 C51.02969248 127.53136093 39.68251148 131.50832811 23.14404297 131.44262695 C22.07391464 131.44454041 21.00378632 131.44645386 19.90122986 131.44842529 C17.65656293 131.44977845 15.41188795 131.44614321 13.16723633 131.43774414 C9.71987621 131.42695812 6.27302847 131.43770688 2.82568359 131.45043945 C0.64013557 131.44911915 -1.54541214 131.44655945 -3.73095703 131.44262695 C-5.28084572 131.44869965 -5.28084572 131.44869965 -6.86204529 131.45489502 C-7.81386185 131.4485907 -8.76567841 131.44228638 -9.74633789 131.43579102 C-10.58523056 131.43419983 -11.42412323 131.43260864 -12.28843689 131.43096924 C-14.32861328 131.17700195 -14.32861328 131.17700195 -16.32861328 129.17700195 C-16.55566406 127.11401367 -16.55566406 127.11401367 -16.52392578 124.60668945 C-16.51425781 123.2628418 -16.51425781 123.2628418 -16.50439453 121.8918457 C-16.48763672 120.95469727 -16.47087891 120.01754883 -16.45361328 119.05200195 C-16.44458984 118.10711914 -16.43556641 117.16223633 -16.42626953 116.1887207 C-16.4026585 113.85122903 -16.36972844 111.51424072 -16.32861328 109.17700195 C-17.51620239 109.17083862 -17.51620239 109.17083862 -18.7277832 109.16455078 C-22.3246458 109.13160041 -25.91981803 109.06095153 -29.51611328 108.98950195 C-30.76199219 108.98370117 -32.00787109 108.97790039 -33.29150391 108.97192383 C-43.59479632 108.72331892 -43.59479632 108.72331892 -46.62939453 105.6887207 C-47.19013672 104.85985352 -47.75087891 104.03098633 -48.32861328 103.17700195 C-48.65861328 102.84700195 -48.98861328 102.51700195 -49.32861328 102.17700195 C-49.41587551 100.39628949 -49.43560369 98.61217055 -49.42626953 96.8293457 C-49.42304687 95.74975586 -49.41982422 94.67016602 -49.41650391 93.55786133 C-49.408125 92.42155273 -49.39974609 91.28524414 -49.39111328 90.11450195 C-49.38660156 88.97432617 -49.38208984 87.83415039 -49.37744141 86.65942383 C-49.36561076 83.83189844 -49.34912738 81.00447555 -49.32861328 78.17700195 C-50.26616455 78.20419312 -50.26616455 78.20419312 -51.22265625 78.23193359 C-52.44686279 78.25308228 -52.44686279 78.25308228 -53.69580078 78.2746582 C-54.50645996 78.29278564 -55.31711914 78.31091309 -56.15234375 78.32958984 C-58.32861328 78.17700195 -58.32861328 78.17700195 -60.45361328 76.61450195 C-62.33190478 71.38211848 -60.27762098 66.75059812 -58.07861328 61.93481445 C-57.17171476 60.05247276 -56.2547885 58.17493405 -55.32861328 56.30200195 C-54.86455078 55.34036133 -54.40048828 54.3787207 -53.92236328 53.38793945 C-50.50392235 46.35231102 -50.50392235 46.35231102 -49.32861328 45.17700195 C-49.19485455 43.51244884 -49.09719414 41.8449511 -49.01611328 40.17700195 C-48.10277676 29.17415109 -41.95069996 19.06541457 -33.66455078 11.8605957 C-22.73302316 3.56820997 -13.74352053 0.04877865 0 0 Z " fill="#0366D1" transform="translate(110.32861328125,53.822998046875)"/>
<path d="M0 0 C145.86 0 291.72 0 442 0 C442 96.36 442 192.72 442 292 C296.14 292 150.28 292 0 292 C0 195.64 0 99.28 0 0 Z M2 2 C2 96.71 2 191.42 2 289 C146.21 289 290.42 289 439 289 C439 194.29 439 99.58 439 2 C294.79 2 150.58 2 2 2 Z " fill="#AAAAAA" transform="translate(0,0)"/>
<path d="M0 0 C0.99 0 1.98 0 3 0 C3.99 2.97 4.98 5.94 6 9 C7.18758911 9.08302368 7.18758911 9.08302368 8.39916992 9.16772461 C11.99552159 9.42101108 15.59150481 9.67920386 19.1875 9.9375 C21.05631836 10.06801758 21.05631836 10.06801758 22.96289062 10.20117188 C24.7659668 10.33168945 24.7659668 10.33168945 26.60546875 10.46484375 C27.71043701 10.543396 28.81540527 10.62194824 29.95385742 10.70288086 C32.6997012 10.97070901 35.30357272 11.43424476 38 12 C39.72742579 12.08805469 41.45783932 12.13023347 43.1875 12.125 C44.04730469 12.12757812 44.90710938 12.13015625 45.79296875 12.1328125 C48.04240508 12.14241384 48.04240508 12.14241384 50 11 C50.22506027 9.00660901 50.44404346 7.01059507 50.55859375 5.0078125 C51.14018785 2.36233139 51.74124658 1.51209688 54 0 C57.1015625 -0.328125 57.1015625 -0.328125 60.625 -0.25 C62.37683594 -0.22679688 62.37683594 -0.22679688 64.1640625 -0.203125 C67 0 67 0 68 1 C68.09931619 2.41379519 68.12969295 3.83272849 68.125 5.25 C68.12886719 6.40242188 68.12886719 6.40242188 68.1328125 7.578125 C68 10 68 10 67.51171875 12.34765625 C66.87690033 15.63805098 66.80893058 18.83948534 66.6875 22.1875 C66.25676766 30.13276537 64.6338661 36.4365341 59.875 42.875 C55.86326508 45.84019538 51.66179694 47.29817061 47 49 C45.19900324 49.71800535 43.39814328 50.43639729 41.60083008 51.16357422 C39.03801921 52.20020947 36.46924236 53.22160955 33.90039062 54.24316406 C32.05211679 54.97924434 30.20571652 55.72002363 28.359375 56.4609375 C27.23015625 56.90695313 26.1009375 57.35296875 24.9375 57.8125 C23.93589844 58.21082031 22.93429688 58.60914063 21.90234375 59.01953125 C17.10512499 60.64012601 12.42074902 61.16471973 7.375 61.25 C6.45460938 61.27578125 5.53421875 61.3015625 4.5859375 61.328125 C1.41805611 60.92615818 0.10057026 60.42411782 -2 58 C-2.171875 54.86328125 -2.171875 54.86328125 -1.75 51.3125 C-1.62109375 50.13300781 -1.4921875 48.95351562 -1.359375 47.73828125 C-1.24078125 46.83464844 -1.1221875 45.93101562 -1 45 C3.53668441 43.33527827 6.25251556 42.86964656 11 44 C11 44.66 11 45.32 11 46 C13.46800047 44.84826645 15.04783565 43.95216435 17 42 C19.82377977 41.61652374 22.6237131 41.49348878 25.46875 41.34375 C28.16606797 41.23761325 28.16606797 41.23761325 30 39 C32.67995128 38.04287454 35.38409321 37.19118296 38.1015625 36.34765625 C42.40133986 35.07408812 42.40133986 35.07408812 45.25 31.875 C45.4975 31.25625 45.745 30.6375 46 30 C47.32 29.67 48.64 29.34 50 29 C50 26.03 50 23.06 50 20 C49.278125 20.309375 48.55625 20.61875 47.8125 20.9375 C42.68244789 22.87551969 37.41549743 23.35748336 32 24 C32 23.34 32 22.68 32 22 C25.71091518 22.52480001 25.71091518 22.52480001 20 25 C19.67 24.34 19.34 23.68 19 23 C17.02 23.33 15.04 23.66 13 24 C13 23.34 13 22.68 13 22 C12.01 22 11.02 22 10 22 C9.67 22.99 9.34 23.98 9 25 C8.67 24.34 8.34 23.68 8 23 C7.4225 23.185625 6.845 23.37125 6.25 23.5625 C3.79307475 24.04023546 2.35602466 23.75729364 0 23 C-0.21278058 18.53160785 0.40861915 15.17737474 2 11 C1.01 11.495 1.01 11.495 0 12 C-0.57546672 13.97960553 -1.06285417 15.98532794 -1.5 18 C-1.93714583 20.01467206 -2.42453328 22.02039447 -3 24 C-3.66 24.33 -4.32 24.66 -5 25 C-5.80270148 16.00974338 -2.88128955 8.38661065 0 0 Z " fill="#F6F9FB" transform="translate(95,87)"/>
<path d="M0 0 C0.66 0 1.32 0 2 0 C2.042721 1.66611905 2.04063832 3.33382885 2 5 C1.67 5.33 1.34 5.66 1 6 C0.95936168 7.66617115 0.957279 9.33388095 1 11 C2.134375 11.144375 3.26875 11.28875 4.4375 11.4375 C8 12 8 12 9 13 C9.33 12.34 9.66 11.68 10 11 C10.99 11 11.98 11 13 11 C13 11.66 13 12.32 13 13 C13.99 12.34 14.98 11.68 16 11 C18.1875 11.375 18.1875 11.375 20 12 C20 12.66 20 13.32 20 14 C20.495 13.505 20.99 13.01 21.5 12.5 C25.11630158 10.33021905 27.82231616 10.79111581 32 11 C32 11.66 32 12.32 32 13 C33.051875 12.505 33.051875 12.505 34.125 12 C37 11 37 11 40 11.0625 C43.53775165 10.98879684 45.0505843 9.83342057 48 8 C48.99 8.33 49.98 8.66 51 9 C51.36783439 15.49840764 51.36783439 15.49840764 49.625 17.875 C48 19 48 19 46 20 C45.608125 20.804375 45.21625 21.60875 44.8125 22.4375 C42.32567647 25.95335396 40.13156236 26.03596878 36 27 C34.75998593 27.49445238 33.53012354 28.01522404 32.3125 28.5625 C29.11859345 29.94853492 26.53572932 30.86209778 23.0859375 31.171875 C18.79370223 31.46321328 18.79370223 31.46321328 15.1875 33.5625 C14.795625 34.036875 14.40375 34.51125 14 35 C13.01 35 12.02 35 11 35 C11 34.34 11 33.68 11 33 C9.515 33.495 9.515 33.495 8 34 C7.195625 33.835 6.39125 33.67 5.5625 33.5 C2.93165749 32.98666488 1.50675973 33.16441342 -1 34 C-1 36.64 -1 39.28 -1 42 C-1.33 42 -1.66 42 -2 42 C-2 39.03 -2 36.06 -2 33 C-0.515 32.505 -0.515 32.505 1 32 C-1.12780579 29.65941363 -3.11562221 28.29299694 -6 27 C-6 26.34 -6 25.68 -6 25 C-6.66 25 -7.32 25 -8 25 C-8.29934013 21.94673067 -8.4297816 19.04471786 -8 16 C-6.35511706 14.31183067 -4.68662458 12.64646685 -3 11 C-2.21713621 8.37534615 -1.7599246 5.8170903 -1.359375 3.109375 C-1 1 -1 1 0 0 Z " fill="#3075C1" transform="translate(95,98)"/>
<path d="M0 0 C3.24395925 0.44033124 6.3518157 0.58457481 9.625 0.5625 C9.71229047 4.62486402 9.76548992 8.68698589 9.8125 12.75 C9.83763672 13.90048828 9.86277344 15.05097656 9.88867188 16.23632812 C9.89833984 17.34814453 9.90800781 18.45996094 9.91796875 19.60546875 C9.9336792 20.62664795 9.94938965 21.64782715 9.96557617 22.69995117 C9.56955743 26.02849578 8.59401862 27.87407226 6.625 30.5625 C2.41321372 33.08957177 -1.60389146 32.86542753 -6.375 32.5625 C-8.8125 31.875 -8.8125 31.875 -10.375 30.5625 C-11.125 27.9375 -11.125 27.9375 -11.375 25.5625 C-9 25.4375 -9 25.4375 -6.375 25.5625 C-5.715 26.2225 -5.055 26.8825 -4.375 27.5625 C-1.875 27.89583333 -1.875 27.89583333 0.625 27.5625 C2.7635485 25.4239515 3.05155063 24.42974686 3.625 21.5625 C3.13 21.913125 2.635 22.26375 2.125 22.625 C-1.51930724 23.99161522 -4.74876164 23.80344633 -8.375 22.5625 C-11.82056921 19.20307002 -12.66271259 16.23388604 -12.9375 11.5625 C-12.79735139 7.98871039 -12.29841084 5.81182727 -10.0625 3 C-6.54106085 -0.19386342 -4.53384758 -0.62669224 0 0 Z " fill="#0A64BF" transform="translate(301.375,102.4375)"/>
<path d="M0 0 C2.866875 -0.0825 5.73375 -0.165 8.6875 -0.25 C9.58170654 -0.28641602 10.47591309 -0.32283203 11.3972168 -0.36035156 C15.44692845 -0.41666694 17.50103852 -0.31241573 21.01953125 1.890625 C23.29892962 4.31838657 23.9042028 5.41153147 24.4375 8.6875 C23.90631978 12.70929312 22.77268771 14.68521588 20.06640625 17.65234375 C15.99553907 20.30725713 11.68207264 19.39968913 7 19 C7 22.63 7 26.26 7 30 C4.69 30 2.38 30 0 30 C0 20.1 0 10.2 0 0 Z " fill="#0E65B9" transform="translate(218,138)"/>
<path d="M0 0 C0.99 0.33 1.98 0.66 3 1 C3.36783439 7.49840764 3.36783439 7.49840764 1.625 9.875 C0 11 0 11 -2 12 C-2.391875 12.804375 -2.78375 13.60875 -3.1875 14.4375 C-5.67432353 17.95335396 -7.86843764 18.03596878 -12 19 C-13.24001407 19.49445238 -14.46987646 20.01522404 -15.6875 20.5625 C-19.89337887 22.38769272 -22.4046208 23 -27 23 C-27 20.69 -27 18.38 -27 16 C-28.65 16 -30.3 16 -32 16 C-31.67 17.65 -31.34 19.3 -31 21 C-31.66 21 -32.32 21 -33 21 C-33 19.02 -33 17.04 -33 15 C-33.763125 15.20625 -34.52625 15.4125 -35.3125 15.625 C-38 16 -38 16 -41 14 C-40.67 11.69 -40.34 9.38 -40 7 C-39.34 7.33 -38.68 7.66 -38 8 C-38.33 9.65 -38.66 11.3 -39 13 C-37.68 13 -36.36 13 -35 13 C-35 11.02 -35 9.04 -35 7 C-34.34 6.67 -33.68 6.34 -33 6 C-32.67 8.31 -32.34 10.62 -32 13 C-31.01 13 -30.02 13 -29 13 C-28.80664062 12.44570312 -28.61328125 11.89140625 -28.4140625 11.3203125 C-28.15367188 10.59585938 -27.89328125 9.87140625 -27.625 9.125 C-27.36976562 8.40570313 -27.11453125 7.68640625 -26.8515625 6.9453125 C-26 5 -26 5 -24 3 C-21.31160615 2.73008094 -18.70858064 2.91262643 -16 3 C-16 3.66 -16 4.32 -16 5 C-15.29875 4.67 -14.5975 4.34 -13.875 4 C-11 3 -11 3 -8 3.0625 C-4.46224835 2.98879684 -2.9494157 1.83342057 0 0 Z " fill="#3575BE" transform="translate(143,106)"/>
<path d="M0 0 C2.70158387 1.26073914 4.87916151 2.87916151 7 5 C7.04063832 6.66617115 7.042721 8.33388095 7 10 C4.25 10.25 4.25 10.25 1 10 C-0.37310707 8.70766393 -1.71034824 7.37562854 -3 6 C-4.32 6 -5.64 6 -7 6 C-7 7.65 -7 9.3 -7 11 C-5.75108386 11.48198463 -4.50081192 11.96045677 -3.25 12.4375 C-2.20585937 12.83775391 -2.20585937 12.83775391 -1.140625 13.24609375 C0.97948689 14.03710502 0.97948689 14.03710502 3.15625 14.5 C5 15 5 15 6.75 16.5625 C8.54180129 20.05651252 8.74269405 23.21151014 8 27 C6.3125 30 6.3125 30 3 32 C-2.69053714 32.82334276 -7.91261075 33.36208574 -12.85546875 30.13671875 C-15.27668841 27.72431956 -15.7203266 26.35608085 -16 23 C-13.125 22.8125 -13.125 22.8125 -10 23 C-9.34 23.99 -8.68 24.98 -8 26 C-5.79274927 26.36362818 -5.79274927 26.36362818 -3.375 26.1875 C-2.55773437 26.16042969 -1.74046875 26.13335937 -0.8984375 26.10546875 C0.04128906 26.05326172 0.04128906 26.05326172 1 26 C0.505 23.525 0.505 23.525 0 21 C-0.83144531 20.75765625 -1.66289062 20.5153125 -2.51953125 20.265625 C-3.60621094 19.93046875 -4.69289062 19.5953125 -5.8125 19.25 C-6.89144531 18.92515625 -7.97039062 18.6003125 -9.08203125 18.265625 C-12.24310825 16.89455546 -13.36762552 15.99268654 -15 13 C-15.71375465 8.00371747 -15.71375465 8.00371747 -15 5 C-10.79548489 -0.17478783 -6.52626544 -1.30525309 0 0 Z " fill="#0F67BE" transform="translate(233,94)"/>
<path d="M0 0 C0.94746094 -0.02835938 1.89492188 -0.05671875 2.87109375 -0.0859375 C5.5625 0.375 5.5625 0.375 7.89453125 1.7890625 C10.45753345 5.76261626 9.98980806 9.50817095 9.8125 14.125 C9.79445313 15.01316406 9.77640625 15.90132812 9.7578125 16.81640625 C9.71077374 19.00370848 9.64507009 21.18879816 9.5625 23.375 C7.54427083 23.34244792 5.52604167 23.30989583 3.5078125 23.27734375 C1.48064596 23.24850758 1.48064596 23.24850758 -0.4375 24.375 C-6.72834967 24.94689542 -6.72834967 24.94689542 -9.375 22.8125 C-10.86541738 19.39330718 -10.96454073 17.06428508 -10.4375 13.375 C-8.5 10.9375 -8.5 10.9375 -5.4375 9.375 C-2.40469442 9.06563354 0.52669621 9.13689774 3.5625 9.375 C2.74718266 7.36886866 2.74718266 7.36886866 1.5625 5.375 C-0.99269921 4.56328772 -0.99269921 4.56328772 -3.4375 4.375 C-3.7675 5.365 -4.0975 6.355 -4.4375 7.375 C-6.0875 7.375 -7.7375 7.375 -9.4375 7.375 C-9.125 5 -9.125 5 -8.4375 2.375 C-5.13363642 0.17242428 -3.86932123 0.05250097 0 0 Z " fill="#1E75C7" transform="translate(268.4375,144.625)"/>
<path d="M0 0 C1.57394531 -0.04253906 1.57394531 -0.04253906 3.1796875 -0.0859375 C6.125 0.375 6.125 0.375 8.4921875 1.7890625 C11.00552702 5.76951887 10.55165034 9.52529703 10.375 14.125 C10.35695313 15.01316406 10.33890625 15.90132812 10.3203125 16.81640625 C10.27327374 19.00370848 10.20757009 21.18879816 10.125 23.375 C7.35313012 23.48287818 4.58544463 23.56223327 1.8125 23.625 C1.02681641 23.65851563 0.24113281 23.69203125 -0.56835938 23.7265625 C-6.36878804 23.8252932 -6.36878804 23.8252932 -8.890625 21.58203125 C-10.34237552 18.3271144 -10.32196292 15.88685149 -9.875 12.375 C-7.691241 10.18622086 -6.38554375 9.43301634 -3.296875 9.08203125 C-2.41515625 9.11683594 -1.5334375 9.15164062 -0.625 9.1875 C0.71304687 9.22810547 0.71304687 9.22810547 2.078125 9.26953125 C2.75359375 9.30433594 3.4290625 9.33914062 4.125 9.375 C3.795 8.055 3.465 6.735 3.125 5.375 C0.70854218 5.20812552 0.70854218 5.20812552 -1.875 5.375 C-2.535 6.035 -3.195 6.695 -3.875 7.375 C-6.5 7.5 -6.5 7.5 -8.875 7.375 C-7.88619037 1.11253902 -6.27605073 0.07672434 0 0 Z " fill="#0C66BD" transform="translate(364.875,102.625)"/>
<path d="M0 0 C7.26 0 14.52 0 22 0 C22 1.65 22 3.3 22 5 C17.05 5 12.1 5 7 5 C7 7.64 7 10.28 7 13 C11.29 13 15.58 13 20 13 C20 14.98 20 16.96 20 19 C15.71 19 11.42 19 7 19 C7 22.96 7 26.92 7 31 C4.69 31 2.38 31 0 31 C0 20.77 0 10.54 0 0 Z " fill="#24AFBC" transform="translate(218,52)"/>
<path d="M0 0 C2.69098824 1.95396599 4.59382215 3.97991348 6 7 C6 9.31 6 11.62 6 14 C1.05 14 -3.9 14 -9 14 C-8.01 15.65 -7.02 17.3 -6 19 C-2.37 18.67 1.26 18.34 5 18 C2.87909994 22.24180013 2.18353093 23.14065292 -2 25 C-5.5 25.5 -5.5 25.5 -9 25 C-12.49701938 22.1111579 -14.74466679 19.93821119 -15.34375 15.390625 C-15.74913126 7.24246161 -15.74913126 7.24246161 -13.71875 3.875 C-9.78338289 0.15428927 -5.31606623 -1.7827616 0 0 Z " fill="#14A6B3" transform="translate(274,59)"/>
<path d="M0 0 C4.77986577 0.46256766 7.40802227 2.14307161 10.875 5.375 C11.875 7.375 11.875 7.375 11.875 14.375 C6.925 14.375 1.975 14.375 -3.125 14.375 C-2.465 16.025 -1.805 17.675 -1.125 19.375 C0.54111905 19.417721 2.20882885 19.41563832 3.875 19.375 C4.205 19.045 4.535 18.715 4.875 18.375 C6.54117115 18.33436168 8.20888095 18.332279 9.875 18.375 C9.57111836 21.31252254 9.06830344 22.21580893 6.75 24.125 C3.10856764 25.70823146 0.81066717 25.93723817 -3.125 25.375 C-6.63426191 22.47604451 -8.9237211 20.32165446 -9.3984375 15.73046875 C-9.66830908 7.31255141 -9.66830908 7.31255141 -8.04296875 4.5078125 C-6.6875 3.1875 -6.6875 3.1875 -4.125 1.375 C-3.125 0.375 -3.125 0.375 0 0 Z " fill="#1BABB9" transform="translate(293.125,58.625)"/>
<path d="M0 0 C2.7810037 1.71894268 3.35450122 2.98325224 5 6 C5 8.31 5 10.62 5 13 C0.05 13 -4.9 13 -10 13 C-9.34 14.65 -8.68 16.3 -8 18 C-6.33388095 18.042721 -4.66617115 18.04063832 -3 18 C-2.67 17.67 -2.34 17.34 -2 17 C-0.00041636 16.95919217 2.00045254 16.95745644 4 17 C3.70049983 19.8951683 3.19065168 20.83823494 0.9375 22.75 C-2.8288985 24.35272277 -5.97013805 24.89552488 -10 24 C-12.69105198 21.82425584 -14.45532928 20.08934144 -16 17 C-16.51124099 11.79539913 -16.86132441 7.43554069 -14.125 2.875 C-9.91920441 -0.83599611 -5.41411684 -0.88393744 0 0 Z " fill="#0A64BA" transform="translate(352,145)"/>
<path d="M0 0 C2.31 0 4.62 0 7 0 C7.33 5.61 7.66 11.22 8 17 C9.65 17 11.3 17 13 17 C13.33 11.39 13.66 5.78 14 0 C16.31 0 18.62 0 21 0 C21 7.59 21 15.18 21 23 C19.02 23 17.04 23 15 23 C15 22.34 15 21.68 15 21 C14.01 21.66 13.02 22.32 12 23 C9.84375 23.3359375 9.84375 23.3359375 7.5 23.375 C6.33984375 23.41753906 6.33984375 23.41753906 5.15625 23.4609375 C3 23 3 23 1.23046875 21.5859375 C-0.68670762 17.55682399 -0.31413625 13.64655081 -0.1875 9.25 C-0.17396484 8.36183594 -0.16042969 7.47367187 -0.14648438 6.55859375 C-0.11121309 4.37177422 -0.06192752 2.18620034 0 0 Z " fill="#2F7EC5" transform="translate(246,103)"/>
<path d="M0 0 C1.98 0 3.96 0 6 0 C6 0.66 6 1.32 6 2 C6.99 1.34 7.98 0.68 9 0 C14.69469027 -0.63274336 14.69469027 -0.63274336 17 0 C19.46059279 2.13852567 20.82323566 3.81951087 21.31420898 7.09838867 C21.39357422 9.51560518 21.34917136 11.89615162 21.25 14.3125 C21.23195313 15.14845703 21.21390625 15.98441406 21.1953125 16.84570312 C21.14841126 18.89763228 21.07667411 20.94896756 21 23 C19.02 23 17.04 23 15 23 C14.67 17.72 14.34 12.44 14 7 C12.02 6.34 10.04 5.68 8 5 C7.67 11.27 7.34 17.54 7 24 C4.69 24 2.38 24 0 24 C0 16.08 0 8.16 0 0 Z " fill="#3E86C2" transform="translate(310,145)"/>
<path d="M0 0 C1.98 0 3.96 0 6 0 C6 0.66 6 1.32 6 2 C6.99 1.34 7.98 0.68 9 0 C14.69469027 -0.63274336 14.69469027 -0.63274336 17 0 C19.44646053 2.13423742 20.8132057 3.82249184 21.33032227 7.08227539 C21.42965403 9.48427488 21.39829856 11.84764036 21.3125 14.25 C21.30283203 15.07757813 21.29316406 15.90515625 21.28320312 16.7578125 C21.16870301 22.83129699 21.16870301 22.83129699 20 24 C18.02 24 16.04 24 14 24 C13.67 18.06 13.34 12.12 13 6 C11.35 6 9.7 6 8 6 C5.94077598 8.05922402 6.58572421 12.21708124 6.4375 15.0625 C6.39431641 15.82111328 6.35113281 16.57972656 6.30664062 17.36132812 C6.20026367 19.24065438 6.09960066 21.12030244 6 23 C4.02 23 2.04 23 0 23 C0 15.41 0 7.82 0 0 Z " fill="#156FC5" transform="translate(284,145)"/>
<path d="M0 0 C0 0.33 0 0.66 0 1 C-1.258125 1.061875 -2.51625 1.12375 -3.8125 1.1875 C-6.80437798 1.59524266 -7.73965851 1.75592986 -10 3.875 C-11.49991917 8.5622474 -11.23070904 13.12093112 -11 18 C-10.34 18 -9.68 18 -9 18 C-8.96261719 17.32453125 -8.92523438 16.6490625 -8.88671875 15.953125 C-8.82097656 15.06109375 -8.75523437 14.1690625 -8.6875 13.25 C-8.62949219 12.36828125 -8.57148438 11.4865625 -8.51171875 10.578125 C-7.92708069 7.63262026 -7.05421036 6.16860949 -5 4 C-2.5 3.5 -2.5 3.5 0 4 C2.40311451 6.23738248 2.96341425 7.46340904 3.1875 10.75 C3.0946875 11.86375 3.0946875 11.86375 3 13 C3.99 13 4.98 13 6 13 C6 14.65 6 16.3 6 18 C5.34 18 4.68 18 4 18 C3.67 20.31 3.34 22.62 3 25 C2.67 23.68 2.34 22.36 2 21 C1.505 21.350625 1.01 21.70125 0.5 22.0625 C-3.14430724 23.42911522 -6.37376164 23.24094633 -10 22 C-13.44556921 18.64057002 -14.28771259 15.67138604 -14.5625 11 C-14.42235139 7.42621039 -13.92341084 5.24932727 -11.6875 2.4375 C-7.54713202 -1.31771747 -5.2626547 -1.05253094 0 0 Z " fill="#1476D0" transform="translate(303,103)"/>
<path d="M0 0 C2.6971515 1.39911409 3.93442109 2.66263439 6 5 C6 5.99 6 6.98 6 8 C4.02 8 2.04 8 0 8 C-0.33 7.34 -0.66 6.68 -1 6 C-2.99954746 5.95745644 -5.00041636 5.95919217 -7 6 C-8.2245178 7.00469623 -8.2245178 7.00469623 -8.1328125 9.03125 C-8.13023437 9.8459375 -8.12765625 10.660625 -8.125 11.5 C-8.12757813 12.3146875 -8.13015625 13.129375 -8.1328125 13.96875 C-8.2245178 15.99530377 -8.2245178 15.99530377 -7 17 C-4.5 17.16666667 -4.5 17.16666667 -2 17 C-1.67 16.67 -1.34 16.34 -1 16 C0.99958364 15.95919217 3.00045254 15.95745644 5 16 C4.6858889 18.93170364 3.9610478 20.04249331 1.9375 22.25 C-1.82309791 24.4903562 -4.7212471 25.01998554 -9 24 C-12.21954645 21.46546343 -13.70432435 19.88702695 -15 16 C-15.57054828 10.73465444 -15.85564717 6.45460018 -13.125 1.8125 C-8.70350298 -0.75196827 -4.9910025 -1.01093671 0 0 Z " fill="#0862B9" transform="translate(344,103)"/>
<path d="M0 0 C0.33 0 0.66 0 1 0 C1 9.57 1 19.14 1 29 C2.32 29 3.64 29 5 29 C5 25.37 5 21.74 5 18 C8.23294636 16.38352682 11.79624901 16.71226202 15.37109375 16.57421875 C18.11194174 16.23034437 18.11194174 16.23034437 19.8046875 14.12890625 C21.14065953 11.74947895 21.62623238 9.69112685 22 7 C18.23145777 8.25618074 17.92041544 9.66014706 16 13 C13.04335481 14.4783226 10.25770263 14.06032783 7 14 C7 10.7 7 7.4 7 4 C9.31 4 11.62 4 14 4 C14 3.34 14 2.68 14 2 C15.98 1.67 17.96 1.34 20 1 C22.42996469 3.58183748 23.86482072 5.3781753 24.625 8.875 C23.8663319 12.66834049 22.65965494 14.80914338 20.06640625 17.65234375 C15.99553907 20.30725713 11.68207264 19.39968913 7 19 C7 22.63 7 26.26 7 30 C4.69 30 2.38 30 0 30 C0 20.1 0 10.2 0 0 Z " fill="#3882C1" transform="translate(218,138)"/>
<path d="M0 0 C1.98 0 3.96 0 6 0 C6 10.89 6 21.78 6 33 C4.02 33 2.04 33 0 33 C0 22.11 0 11.22 0 0 Z " fill="#1D6DB8" transform="translate(246,136)"/>
<path d="M0 0 C1.98 0 3.96 0 6 0 C6 10.89 6 21.78 6 33 C4.02 33 2.04 33 0 33 C0 22.11 0 11.22 0 0 Z " fill="#1369BC" transform="translate(382,93)"/>
<path d="M0 0 C1.98 0 3.96 0 6 0 C6 0.66 6 1.32 6 2 C6.99 1.34 7.98 0.68 9 0 C10.32 0 11.64 0 13 0 C13 1.98 13 3.96 13 6 C11.7934375 6.4640625 11.7934375 6.4640625 10.5625 6.9375 C8.10919595 7.76335345 8.10919595 7.76335345 7 9 C6.76346477 11.52596259 6.57826308 14.03107207 6.4375 16.5625 C6.39431641 17.27341797 6.35113281 17.98433594 6.30664062 18.71679688 C6.20028223 20.47761912 6.09961154 22.2387832 6 24 C4.02 24 2.04 24 0 24 C0 16.08 0 8.16 0 0 Z " fill="#0360C2" transform="translate(362,145)"/>
<path d="M0 0 C0.33 0 0.66 0 1 0 C1.33 2.31 1.66 4.62 2 7 C2.99 7 3.98 7 5 7 C5.66 5.68 6.32 4.36 7 3 C7 4.32 7 5.64 7 7 C8.65 6.67 10.3 6.34 12 6 C12.33 4.02 12.66 2.04 13 0 C13.66 0.33 14.32 0.66 15 1 C14.95875 1.78375 14.9175 2.5675 14.875 3.375 C14.71271266 6.16116119 14.71271266 6.16116119 17 8 C17.33 8.99 17.66 9.98 18 11 C19.32 10.67 20.64 10.34 22 10 C22.33 8.68 22.66 7.36 23 6 C22.01 5.67 21.02 5.34 20 5 C21.98 4.67 23.96 4.34 26 4 C25.34 4.33 24.68 4.66 24 5 C24 6.65 24 8.3 24 10 C25.485 10.495 25.485 10.495 27 11 C25.9790625 11.4021875 25.9790625 11.4021875 24.9375 11.8125 C22.75638175 12.69422865 20.59198246 13.61755155 18.4375 14.5625 C14.17513504 16.34494353 11.6269577 17 7 17 C7 14.69 7 12.38 7 10 C5.35 10 3.7 10 2 10 C2.33 11.65 2.66 13.3 3 15 C2.34 15 1.68 15 1 15 C1 13.02 1 11.04 1 9 C0.236875 9.20625 -0.52625 9.4125 -1.3125 9.625 C-4 10 -4 10 -7 8 C-6.67 5.69 -6.34 3.38 -6 1 C-5.34 1.33 -4.68 1.66 -4 2 C-4.33 3.65 -4.66 5.3 -5 7 C-3.68 7 -2.36 7 -1 7 C-1.020625 6.030625 -1.04125 5.06125 -1.0625 4.0625 C-1 1 -1 1 0 0 Z " fill="#2265B4" transform="translate(109,112)"/>
<path d="M0 0 C1.98 0 3.96 0 6 0 C6 0.66 6 1.32 6 2 C6.99 1.34 7.98 0.68 9 0 C10.32 0 11.64 0 13 0 C13 1.98 13 3.96 13 6 C11.02 6.66 9.04 7.32 7 8 C6.67 12.95 6.34 17.9 6 23 C4.02 23 2.04 23 0 23 C0 15.41 0 7.82 0 0 Z " fill="#0362C1" transform="translate(273,103)"/>
<path d="M0 0 C1.98 0 3.96 0 6 0 C6 0.66 6 1.32 6 2 C6.99 1.34 7.98 0.68 9 0 C10.32 0 11.64 0 13 0 C13 1.65 13 3.3 13 5 C11.02 5.66 9.04 6.32 7 7 C6.67 12.28 6.34 17.56 6 23 C4.02 23 2.04 23 0 23 C0 15.41 0 7.82 0 0 Z " fill="#1BAFBA" transform="translate(243,60)"/>
<path d="M0 0 C0.66 0 1.32 0 2 0 C2.042721 1.66611905 2.04063832 3.33382885 2 5 C1.67 5.33 1.34 5.66 1 6 C0.95936168 7.66617115 0.957279 9.33388095 1 11 C3.97 11.495 3.97 11.495 7 12 C7 12.66 7 13.32 7 14 C6.34 14 5.68 14 5 14 C4.67 16.97 4.34 19.94 4 23 C3.67 23 3.34 23 3 23 C2.67 20.36 2.34 17.72 2 15 C-0.5654594 17.5654594 -0.54046087 19.47686668 -1 23 C-0.01 23.33 0.98 23.66 2 24 C1.34 24 0.68 24 0 24 C0.20625 24.61875 0.4125 25.2375 0.625 25.875 C0.74875 26.57625 0.8725 27.2775 1 28 C0.34 28.66 -0.32 29.32 -1 30 C-3.5 28.625 -3.5 28.625 -6 27 C-6 26.34 -6 25.68 -6 25 C-6.66 25 -7.32 25 -8 25 C-8.29934013 21.94673067 -8.4297816 19.04471786 -8 16 C-6.35511706 14.31183067 -4.68662458 12.64646685 -3 11 C-2.21713621 8.37534615 -1.7599246 5.8170903 -1.359375 3.109375 C-1 1 -1 1 0 0 Z " fill="#2063B5" transform="translate(95,98)"/>
<path d="M0 0 C2.31 0 4.62 0 7 0 C7 7.59 7 15.18 7 23 C4.69 23 2.38 23 0 23 C0 15.41 0 7.82 0 0 Z " fill="#2B7DC9" transform="translate(317,103)"/>
<path d="M0 0 C6.93 0 13.86 0 21 0 C21 1.65 21 3.3 21 5 C15.72 5 10.44 5 5 5 C4.67 4.34 4.34 3.68 4 3 C3.67 4.32 3.34 5.64 3 7 C3.66 7 4.32 7 5 7 C5 8.65 5 10.3 5 12 C4.01 12.495 4.01 12.495 3 13 C2.27840576 14.64363134 1.60648579 16.31050386 1 18 C0.67 18 0.34 18 0 18 C0 12.06 0 6.12 0 0 Z " fill="#10A6B3" transform="translate(219,52)"/>
<path d="M0 0 C0.90105469 0.02707031 1.80210937 0.05414063 2.73046875 0.08203125 C3.76107422 0.13423828 3.76107422 0.13423828 4.8125 0.1875 C4.8125 0.8475 4.8125 1.5075 4.8125 2.1875 C2.8325 2.8475 0.8525 3.5075 -1.1875 4.1875 C-1.1875 5.8375 -1.1875 7.4875 -1.1875 9.1875 C1.26474694 9.08136164 1.26474694 9.08136164 3.8125 8.1875 C4.96771502 5.71619082 4.96771502 5.71619082 5.8125 3.1875 C6.8025 2.8575 7.7925 2.5275 8.8125 2.1875 C9.1425 3.1775 9.4725 4.1675 9.8125 5.1875 C9.1525 5.1875 8.4925 5.1875 7.8125 5.1875 C7.4825 7.8275 7.1525 10.4675 6.8125 13.1875 C2.74433621 14.17372152 -1.00814283 14.57447752 -5.1875 14.1875 C-7.125 12.625 -7.125 12.625 -8.1875 10.1875 C-8.82851417 4.0978654 -8.82851417 4.0978654 -6.98828125 1.484375 C-4.55791765 -0.26590855 -2.96197909 -0.11540178 0 0 Z " fill="#2977BE" transform="translate(266.1875,154.8125)"/>
<path d="M0 0 C0.99 0 1.98 0 3 0 C3 0.66 3 1.32 3 2 C3.99 1.34 4.98 0.68 6 0 C8.1875 0.375 8.1875 0.375 10 1 C10 1.66 10 2.32 10 3 C10.66 3.33 11.32 3.66 12 4 C11.01 6.31 10.02 8.62 9 11 C7.68 10.67 6.36 10.34 5 10 C4.67 8.02 4.34 6.04 4 4 C3.67 5.98 3.34 7.96 3 10 C1.68 10 0.36 10 -1 10 C-0.979375 9.195625 -0.95875 8.39125 -0.9375 7.5625 C-0.70366379 5.06645115 -0.70366379 5.06645115 -2 4 C-2 6.31 -2 8.62 -2 11 C-3.32 11 -4.64 11 -6 11 C-5.67 8.36 -5.34 5.72 -5 3 C-4.34 3 -3.68 3 -3 3 C-2.67 2.34 -2.34 1.68 -2 1 C-1.67 1.33 -1.34 1.66 -1 2 C-0.67 1.34 -0.34 0.68 0 0 Z " fill="#2F73BE" transform="translate(105,109)"/>
<path d="M0 0 C2.55859375 0.40625 2.55859375 0.40625 5.55859375 2.40625 C5.8515625 4.7890625 5.8515625 4.7890625 5.74609375 7.53125 C5.71902344 8.44132812 5.69195312 9.35140625 5.6640625 10.2890625 C5.62925781 10.98773438 5.59445312 11.68640625 5.55859375 12.40625 C4.56859375 12.40625 3.57859375 12.40625 2.55859375 12.40625 C2.24921875 11.271875 1.93984375 10.1375 1.62109375 8.96875 C0.92934844 5.61849901 0.92934844 5.61849901 -0.44140625 4.40625 C-2.89932654 4.07281449 -2.89932654 4.07281449 -5.44140625 4.40625 C-7.44433972 7.41065021 -7.93412251 9.11618945 -8.56640625 12.59375 C-8.73398437 13.49480469 -8.9015625 14.39585938 -9.07421875 15.32421875 C-9.19539063 16.01128906 -9.3165625 16.69835937 -9.44140625 17.40625 C-10.10140625 17.40625 -10.76140625 17.40625 -11.44140625 17.40625 C-13.1869675 13.91512749 -12.8633041 10.22250785 -12.44140625 6.40625 C-9.96859138 -0.30567608 -6.46323964 -0.21047185 0 0 Z " fill="#0567C7" transform="translate(303.44140625,103.59375)"/>
<path d="M0 0 C1.32 0 2.64 0 4 0 C4.37582266 3.28844828 4.14736621 4.75727919 2.40625 7.625 C-0.69501441 10.68598825 -2.45600157 10.68368005 -6.75 10.8125 C-7.92046875 10.86019531 -9.0909375 10.90789062 -10.296875 10.95703125 C-11.18890625 10.97121094 -12.0809375 10.98539063 -13 11 C-13 14.3 -13 17.6 -13 21 C-13.99 21 -14.98 21 -16 21 C-16 15.72 -16 10.44 -16 5 C-14.68 5.33 -13.36 5.66 -12 6 C-7.71173467 6.35392593 -4.70397249 6.469315 -1 4 C-0.27617533 1.94074861 -0.27617533 1.94074861 0 0 Z " fill="#0165C9" transform="translate(236,145)"/>
<path d="M0 0 C1.32 0 2.64 0 4 0 C4 1.98 4 3.96 4 6 C4.33 4.35 4.66 2.7 5 1 C6.65 0.67 8.3 0.34 10 0 C10.84454356 3.37817425 11.10844919 5.67465243 10 9 C8.824375 9.185625 8.824375 9.185625 7.625 9.375 C4.85942178 9.79117993 4.85942178 9.79117993 3 12 C2.01 12 1.02 12 0 12 C0 11.34 0 10.68 0 10 C-0.99 10.33 -1.98 10.66 -3 11 C-3.99 10.34 -4.98 9.68 -6 9 C-5.34 9 -4.68 9 -4 9 C-3.71125 8.071875 -3.4225 7.14375 -3.125 6.1875 C-2 3 -2 3 0 0 Z " fill="#276AB7" transform="translate(106,121)"/>
<path d="M0 0 C2.4375 0.375 2.4375 0.375 4.4375 2.375 C4.703125 4.6875 4.703125 4.6875 4.6875 7.375 C4.69265625 8.261875 4.6978125 9.14875 4.703125 10.0625 C4.4375 12.375 4.4375 12.375 2.4375 14.375 C0 14.75 0 14.75 -2.5625 14.375 C-5.07157308 12.12548621 -5.51906309 10.72249528 -5.9375 7.375 C-5.40369097 3.1045278 -4.49071744 0.65717816 0 0 Z " fill="#E0F0F7" transform="translate(300.5625,106.625)"/>
<path d="M0 0 C0.91007812 0.00902344 1.82015625 0.01804688 2.7578125 0.02734375 C3.45648438 0.03894531 4.15515625 0.05054688 4.875 0.0625 C4.875 0.7225 4.875 1.3825 4.875 2.0625 C3.885 2.7225 2.895 3.3825 1.875 4.0625 C2.865 5.5475 2.865 5.5475 3.875 7.0625 C3.875 8.0525 3.875 9.0425 3.875 10.0625 C2.29253293 10.14403933 0.70883727 10.20193557 -0.875 10.25 C-1.75671875 10.28480469 -2.6384375 10.31960937 -3.546875 10.35546875 C-6.125 10.0625 -6.125 10.0625 -10.125 7.0625 C-10.125 10.3625 -10.125 13.6625 -10.125 17.0625 C-10.455 17.0625 -10.785 17.0625 -11.125 17.0625 C-11.75257528 7.1084588 -11.75257528 7.1084588 -9.25 2.9375 C-6.00827417 0.07715368 -4.23876962 -0.0543432 0 0 Z " fill="#0D6DC2" transform="translate(347.125,144.9375)"/>
<path d="M0 0 C1.32 0 2.64 0 4 0 C4 0.66 4 1.32 4 2 C5.65 2 7.3 2 9 2 C8.51917969 2.48984375 8.03835938 2.9796875 7.54296875 3.484375 C5.41610525 6.95197018 5.43486704 10.29230026 5.3125 14.25 C5.27833984 14.99507812 5.24417969 15.74015625 5.20898438 16.5078125 C5.12685946 18.33802492 5.06174347 20.16898669 5 22 C3.35 22 1.7 22 0 22 C0 14.74 0 7.48 0 0 Z " fill="#0562BE" transform="translate(285,146)"/>
<path d="M0 0 C2 2 2 2 2.375 4.3125 C3.23748004 8.02116416 4.00678836 9.57692391 7 12 C10.74690358 12.12417692 14.31355574 11.64194978 18 11 C16.27024931 14.78823229 14.88472728 16.27345454 11 18 C6.780755 18.60274929 4.72605512 18.408406 1 16.3125 C-2.17052352 11.06132041 -0.87119999 5.89138208 0 0 Z " fill="#0AAAB7" transform="translate(261,66)"/>
<path d="M0 0 C1.134375 0.020625 2.26875 0.04125 3.4375 0.0625 C3.4375 0.3925 3.4375 0.7225 3.4375 1.0625 C1.7875 1.3925 0.1375 1.7225 -1.5625 2.0625 C-1.8925 3.0525 -2.2225 4.0425 -2.5625 5.0625 C-3.2225 5.0625 -3.8825 5.0625 -4.5625 5.0625 C-4.5625 6.0525 -4.5625 7.0425 -4.5625 8.0625 C-4.170625 7.5675 -3.77875 7.0725 -3.375 6.5625 C-1.5625 5.0625 -1.5625 5.0625 0.9375 4.75 C3.4375 5.0625 3.4375 5.0625 6.4375 7.0625 C7.0975 7.0625 7.7575 7.0625 8.4375 7.0625 C7.7109375 9.015625 7.7109375 9.015625 6.4375 11.0625 C4.4140625 11.671875 4.4140625 11.671875 2.0625 11.8125 C1.29164063 11.86921875 0.52078125 11.9259375 -0.2734375 11.984375 C-2.36873343 12.05588681 -4.46598409 12.0625 -6.5625 12.0625 C-7.2225 12.7225 -7.8825 13.3825 -8.5625 14.0625 C-9.70356583 8.88381661 -9.70356583 8.88381661 -9.5625 6.0625 C-7.1875 3.125 -7.1875 3.125 -4.5625 1.0625 C-3.5625 0.0625 -3.5625 0.0625 0 0 Z " fill="#1BB1BC" transform="translate(293.5625,58.9375)"/>
<path d="M0 0 C0.33 0 0.66 0 1 0 C1 6.27 1 12.54 1 19 C-4.61 19 -10.22 19 -16 19 C-16 18.67 -16 18.34 -16 18 C-13.69 18 -11.38 18 -9 18 C-9 17.34 -9 16.68 -9 16 C-10.32 15.34 -11.64 14.68 -13 14 C-12.125 9.125 -12.125 9.125 -11 8 C-8.66702567 7.95907063 -6.33294775 7.95758277 -4 8 C-4 10.64 -4 13.28 -4 16 C-2.68 16 -1.36 16 0 16 C0 10.72 0 5.44 0 0 Z " fill="#2175BE" transform="translate(374,107)"/>
<path d="M0 0 C2.31 0.33 4.62 0.66 7 1 C6.67257812 1.65355469 6.34515625 2.30710938 6.0078125 2.98046875 C4.7346987 6.7948756 4.78281056 10.34480837 4.875 14.3125 C4.88853516 15.42334961 4.88853516 15.42334961 4.90234375 16.55664062 C4.92575787 18.37123467 4.96162385 20.18566071 5 22 C3.35 22 1.7 22 0 22 C0 14.74 0 7.48 0 0 Z " fill="#065EB8" transform="translate(311,146)"/>
<path d="M0 0 C3 2.375 3 2.375 5 5 C5 5.66 5 6.32 5 7 C4.01 7 3.02 7 2 7 C1.67 8.65 1.34 10.3 1 12 C-2.3 11.67 -5.6 11.34 -9 11 C-8.50168276 7.31245243 -7.89932357 5.39509338 -5 3 C-6.32 3 -7.64 3 -9 3 C-9.33 3.66 -9.66 4.32 -10 5 C-10.66 5 -11.32 5 -12 5 C-9.51199107 -0.50916263 -5.84245613 -1.02773607 0 0 Z " fill="#1EAEBB" transform="translate(274,59)"/>
<path d="M0 0 C2.31 0 4.62 0 7 0 C7 7.59 7 15.18 7 23 C6.67 23 6.34 23 6 23 C5.67 20.03 5.34 17.06 5 14 C4.34 14.66 3.68 15.32 3 16 C2.01 16 1.02 16 0 16 C0 10.72 0 5.44 0 0 Z " fill="#247BCB" transform="translate(260,103)"/>
<path d="M0 0 C2.14255793 -0.38932856 2.14255793 -0.38932856 4 -1 C6 -1 8 -1 10 -1 C10 -0.34 10 0.32 10 1 C9.34 1 8.68 1 8 1 C8 2.65 8 4.3 8 6 C2.33333333 6 -3.33333333 6 -9 6 C-9 4.02 -9 2.04 -9 0 C-5.6233144 -1.12556187 -3.43807549 -0.6876151 0 0 Z " fill="#9E9E9E" transform="translate(368,207)"/>
<path d="M0 0 C0.33 0 0.66 0 1 0 C1.22786458 2.05078125 1.45572917 4.1015625 1.68359375 6.15234375 C1.81886614 8.01140229 1.81886614 8.01140229 3 9 C5.5 9.16666667 5.5 9.16666667 8 9 C8.33 8.67 8.66 8.34 9 8 C10.99958364 7.95919217 13.00045254 7.95745644 15 8 C14.6858889 10.93170364 13.9610478 12.04249331 11.9375 14.25 C7.9132798 16.64740778 5.63685984 16.45608457 1 16 C0.34 15.34 -0.32 14.68 -1 14 C-0.9765625 10.7421875 -0.9765625 10.7421875 -0.625 6.875 C-0.51414062 5.59367187 -0.40328125 4.31234375 -0.2890625 2.9921875 C-0.19367188 2.00476563 -0.09828125 1.01734375 0 0 Z " fill="#1978C7" transform="translate(334,111)"/>
<path d="M0 0 C1.65 0 3.3 0 5 0 C5.33 0.66 5.66 1.32 6 2 C7.66611905 2.042721 9.33382885 2.04063832 11 2 C11.33 1.67 11.66 1.34 12 1 C13.99958364 0.95919217 16.00045254 0.95745644 18 1 C17.70049983 3.8951683 17.19065168 4.83823494 14.9375 6.75 C11.17845898 8.34959192 8.02179654 8.90814761 4 8 C1 5.5 1 5.5 -1 3 C-0.67 2.01 -0.34 1.02 0 0 Z " fill="#0F66BC" transform="translate(338,161)"/>
<path d="M0 0 C7.07964602 -0.3539823 7.07964602 -0.3539823 10.4375 0.9375 C12.99834027 4.31780915 12.75779392 7.82194508 13 12 C8.38 12 3.76 12 -1 12 C-0.67 11.34 -0.34 10.68 0 10 C2.29220405 9.64562795 4.55538982 9.55663389 6.87109375 9.44140625 C9.38740702 9.17950453 9.38740702 9.17950453 11 6 C10.34 6 9.68 6 9 6 C8.67 6.66 8.34 7.32 8 8 C7.34 7.01 6.68 6.02 6 5 C2.80165127 4.49499757 1.4213623 4.72668391 -1.3125 6.5 C-1.869375 6.995 -2.42625 7.49 -3 8 C-2.67 6.68 -2.34 5.36 -2 4 C-1.34 4 -0.68 4 0 4 C0 2.68 0 1.36 0 0 Z " fill="#0AA5B2" transform="translate(291,60)"/>
<path d="M0 0 C2.00720923 0.28674418 4.0085944 0.61866701 6 1 C6 2.65 6 4.3 6 6 C6.99 6 7.98 6 9 6 C9 4.02 9 2.04 9 0 C12.11257569 0 14.10765685 0.17361624 17 1 C17 4 17 4 16 7 C13.35409986 7.02684679 10.70846904 7.04676357 8.0625 7.0625 C6.93038086 7.07506836 6.93038086 7.07506836 5.77539062 7.08789062 C3.85005687 7.09652441 1.92464419 7.05224333 0 7 C-1 6 -1 6 -1.125 3.5 C-1 1 -1 1 0 0 Z " fill="#8D8D8D" transform="translate(173,206)"/>
<path d="M0 0 C6.40712969 -0.51257038 9.98670247 -0.13597047 15 4 C16 5 16 5 16.0625 7.5625 C16.041875 8.366875 16.02125 9.17125 16 10 C13.25 10.25 13.25 10.25 10 10 C8.62689293 8.70766393 7.28965176 7.37562854 6 6 C4.68 6 3.36 6 2 6 C2 7.98 2 9.96 2 12 C1.34 12 0.68 12 0 12 C0 9.36 0 6.72 0 4 C3.465 3.505 3.465 3.505 7 3 C4.69 2.34 2.38 1.68 0 1 C0 0.67 0 0.34 0 0 Z " fill="#267AC8" transform="translate(224,94)"/>
<path d="M0 0 C1.98 0 3.96 0 6 0 C6 0.33 6 0.66 6 1 C4.35 1 2.7 1 1 1 C1 8.26 1 15.52 1 23 C2.32 23 3.64 23 5 23 C4.96519531 21.99839844 4.93039062 20.99679688 4.89453125 19.96484375 C4.54912528 5.99781856 4.54912528 5.99781856 8 1 C10.6875 0.0625 10.6875 0.0625 13 0 C13 1.98 13 3.96 13 6 C11.7934375 6.4640625 11.7934375 6.4640625 10.5625 6.9375 C8.10919595 7.76335345 8.10919595 7.76335345 7 9 C6.76346477 11.52596259 6.57826308 14.03107207 6.4375 16.5625 C6.39431641 17.27341797 6.35113281 17.98433594 6.30664062 18.71679688 C6.20028223 20.47761912 6.09961154 22.2387832 6 24 C4.02 24 2.04 24 0 24 C0 16.08 0 8.16 0 0 Z " fill="#2D79BD" transform="translate(362,145)"/>
<path d="M0 0 C1.65 0 3.3 0 5 0 C5.33 5.94 5.66 11.88 6 18 C5.01 18 4.02 18 3 18 C2.67 17.34 2.34 16.68 2 16 C1.34 16 0.68 16 0 16 C0 10.72 0 5.44 0 0 Z " fill="#0161C1" transform="translate(247,104)"/>
<path d="M0 0 C2.125 0.375 2.125 0.375 4 1 C4 1.66 4 2.32 4 3 C5.32 3 6.64 3 8 3 C8 8.28 8 13.56 8 19 C6.02 19.99 6.02 19.99 4 21 C3.67 15.39 3.34 9.78 3 4 C0.525 3.01 0.525 3.01 -2 2 C-1.34 1.34 -0.68 0.68 0 0 Z " fill="#0066D0" transform="translate(322,146)"/>
<path d="M0 0 C6.0546875 -0.1953125 6.0546875 -0.1953125 8 0 C10 2 10 2 10.3125 4.5 C10.1578125 5.7375 10.1578125 5.7375 10 7 C6.3558226 9.4294516 4.28758728 9.16179575 0 9 C0 6.03 0 3.06 0 0 Z " fill="#E5F4F9" transform="translate(225,143)"/>
<path d="M0 0 C2.375 -0.125 2.375 -0.125 5 0 C5.66 0.66 6.32 1.32 7 2 C10.73296326 2.38286803 11.77626323 2.14915785 15 0 C15.66 0.66 16.32 1.32 17 2 C17.66 2 18.32 2 19 2 C18 5 18 5 15.9375 6.1875 C11.39797024 7.44311461 7.15950761 7.60909189 2.5625 6.3125 C0.36759695 4.46878144 0.29239786 2.77777966 0 0 Z " fill="#196EC0" transform="translate(290,128)"/>
<path d="M0 0 C1.37197713 5.64035044 1.06656853 11.32400053 0 17 C-0.66 17.66 -1.32 18.32 -2 19 C-5.50813177 14.76100745 -5.35530725 10.77095176 -5.3984375 5.5234375 C-5 3 -5 3 -3.6015625 1.1640625 C-2 0 -2 0 0 0 Z " fill="#0861B8" transform="translate(334,105)"/>
<path d="M0 0 C0.99 0 1.98 0 3 0 C3 9.24 3 18.48 3 28 C2.01 27.67 1.02 27.34 0 27 C0 18.09 0 9.18 0 0 Z " fill="#0168CC" transform="translate(248,138)"/>
<path d="M0 0 C0.36174071 6.39075249 0.36174071 6.39075249 -1.1875 9 C-3 10 -3 10 -5.5 9.75 C-7.34276141 9.19717158 -9.17482878 8.60839041 -11 8 C-11 6.68 -11 5.36 -11 4 C-10.01 4 -9.02 4 -8 4 C-8 3.34 -8 2.68 -8 2 C-3.61016949 -1.20338983 -3.61016949 -1.20338983 0 0 Z " fill="#0463CD" transform="translate(146,107)"/>
<path d="M0 0 C1.2375 -0.103125 2.475 -0.20625 3.75 -0.3125 C4.79414063 -0.39951172 4.79414063 -0.39951172 5.859375 -0.48828125 C8 0 8 0 10.24609375 1.94140625 C12.65322466 6.13914234 12.48197842 9.50460419 12.3125 14.25 C12.30283203 15.07757813 12.29316406 15.90515625 12.28320312 16.7578125 C12.16870301 22.83129699 12.16870301 22.83129699 11 24 C9.02 24 7.04 24 5 24 C5 18.39 5 12.78 5 7 C5.33 7 5.66 7 6 7 C6 12.28 6 17.56 6 23 C6.99 22.67 7.98 22.34 9 22 C9.02703562 19.41659616 9.04685611 16.83347692 9.0625 14.25 C9.07087891 13.52039063 9.07925781 12.79078125 9.08789062 12.0390625 C9.10391684 8.51329442 8.95292713 5.38965084 8 2 C5.36 1.67 2.72 1.34 0 1 C0 0.67 0 0.34 0 0 Z " fill="#438AC4" transform="translate(293,145)"/>
<path d="M0 0 C0.66 0 1.32 0 2 0 C2 2.97 2 5.94 2 9 C0.18757948 9.02687279 -1.62495233 9.04633715 -3.4375 9.0625 C-4.44683594 9.07410156 -5.45617187 9.08570313 -6.49609375 9.09765625 C-9 9 -9 9 -10 8 C-10.04063832 6.33382885 -10.042721 4.66611905 -10 3 C-6.60494113 2.02998318 -3.52935443 2 0 2 C0 1.34 0 0.68 0 0 Z " fill="#818182" transform="translate(306,204)"/>
<path d="M0 0 C1.64574566 -0.02688151 3.29161413 -0.04634123 4.9375 -0.0625 C5.85402344 -0.07410156 6.77054688 -0.08570313 7.71484375 -0.09765625 C10 0 10 0 11 1 C11.04063832 2.66617115 11.042721 4.33388095 11 6 C9.68 6.33 8.36 6.66 7 7 C7 7.66 7 8.32 7 9 C4.36 9 1.72 9 -1 9 C-0.67 8.34 -0.34 7.68 0 7 C0.99 7.33 1.98 7.66 3 8 C2.67 6.02 2.34 4.04 2 2 C1.01 2.99 0.02 3.98 -1 5 C-0.67 3.35 -0.34 1.7 0 0 Z " fill="#858586" transform="translate(206,221)"/>
<path d="M0 0 C2.0625 0.4375 2.0625 0.4375 4 1 C4 1.99 4 2.98 4 4 C5.2065625 4.185625 5.2065625 4.185625 6.4375 4.375 C7.7059375 4.684375 7.7059375 4.684375 9 5 C9.33 5.66 9.66 6.32 10 7 C8.5625 9.625 8.5625 9.625 7 12 C5.35 11.67 3.7 11.34 2 11 C2 9.35 2 7.7 2 6 C0.68 6 -0.64 6 -2 6 C-1.125 1.125 -1.125 1.125 0 0 Z " fill="#437DBE" transform="translate(131,111)"/>
<path d="M0 0 C1.32 0.33 2.64 0.66 4 1 C3.01 1 2.02 1 1 1 C1 7.27 1 13.54 1 20 C1.66 20 2.32 20 3 20 C2.67 19.01 2.34 18.02 2 17 C1.65289256 10.52066116 1.65289256 10.52066116 4 7 C4.38499891 5.34450469 4.72793135 3.6777567 5 2 C5.66 2.33 6.32 2.66 7 3 C6.84660156 3.67417969 6.69320312 4.34835938 6.53515625 5.04296875 C5.91516143 8.46877952 5.6647426 11.83893447 5.4375 15.3125 C5.35371094 16.56675781 5.26992187 17.82101563 5.18359375 19.11328125 C5.12300781 20.06589844 5.06242188 21.01851562 5 22 C3.35 22 1.7 22 0 22 C0 14.74 0 7.48 0 0 Z " fill="#089AA5" transform="translate(244,61)"/>
<path d="M0 0 C1.98 0 3.96 0 6 0 C6.33 0.99 6.66 1.98 7 3 C6.34 3 5.68 3 5 3 C5 2.34 5 1.68 5 1 C3.68 1 2.36 1 1 1 C1 7.93 1 14.86 1 22 C2.32 22 3.64 22 5 22 C4.98839844 20.86820313 4.97679687 19.73640625 4.96484375 18.5703125 C4.95546546 17.08854331 4.9463653 15.60677235 4.9375 14.125 C4.92912109 13.37863281 4.92074219 12.63226563 4.91210938 11.86328125 C4.88671875 6.2265625 4.88671875 6.2265625 6 4 C8.97 4.495 8.97 4.495 12 5 C12 3.68 12 2.36 12 1 C11.01 0.67 10.02 0.34 9 0 C10.32 0 11.64 0 13 0 C13 1.98 13 3.96 13 6 C11.02 6.66 9.04 7.32 7 8 C6.67 12.95 6.34 17.9 6 23 C4.02 23 2.04 23 0 23 C0 15.41 0 7.82 0 0 Z " fill="#2675BA" transform="translate(273,103)"/>
<path d="M0 0 C5.94 0.99 5.94 0.99 12 2 C12 2.66 12 3.32 12 4 C12.99 4 13.98 4 15 4 C14.67 7.3 14.34 10.6 14 14 C12.68 14.33 11.36 14.66 10 15 C10 11.7 10 8.4 10 5 C6.7 4.01 3.4 3.02 0 2 C0 1.34 0 0.68 0 0 Z " fill="#0462C4" transform="translate(225,108)"/>
<path d="M0 0 C2.31282587 3.46923881 2.42478586 4.92205575 2 9 C0.5 10.875 0.5 10.875 -1 12 C-1 9.16032769 -0.59732819 6.76264289 0 4 C-3.27773504 4.75150023 -3.27773504 4.75150023 -5 8 C-5.66 6.35 -6.32 4.7 -7 3 C-9.64 2.67 -12.28 2.34 -15 2 C-15 1.67 -15 1.34 -15 1 C-12.69 1 -10.38 1 -8 1 C-8 0.34 -8 -0.32 -8 -1 C-4.61185031 -2.21005346 -2.99885764 -1.99923843 0 0 Z " fill="#0F6DC5" transform="translate(240,141)"/>
<path d="M0 0 C0.928125 0.165 1.85625 0.33 2.8125 0.5 C5.74559187 0.96009284 7.25741623 0.94935592 10 0 C10.33 1.32 10.66 2.64 11 4 C9.68 4 8.36 4 7 4 C7 4.66 7 5.32 7 6 C8.32 5.67 9.64 5.34 11 5 C10.67 5.66 10.34 6.32 10 7 C9.0925 6.814375 8.185 6.62875 7.25 6.4375 C4.14714806 5.81587232 4.14714806 5.81587232 1.75 6.5625 C1.1725 6.706875 0.595 6.85125 0 7 C-0.66 6.34 -1.32 5.68 -2 5 C-1.46428571 1.46428571 -1.46428571 1.46428571 0 0 Z " fill="#89898A" transform="translate(176,221)"/>
<path d="M0 0 C0.83660156 0.18304688 1.67320312 0.36609375 2.53515625 0.5546875 C3.32792969 0.74289063 4.12070313 0.93109375 4.9375 1.125 C6.04931641 1.31449219 6.04931641 1.31449219 7.18359375 1.5078125 C7.76238281 1.71148437 8.34117187 1.91515625 8.9375 2.125 C9.2675 3.115 9.5975 4.105 9.9375 5.125 C9.2775 5.125 8.6175 5.125 7.9375 5.125 C7.9375 4.465 7.9375 3.805 7.9375 3.125 C7.32261719 3.06441406 6.70773438 3.00382812 6.07421875 2.94140625 C5.26597656 2.85761719 4.45773438 2.77382812 3.625 2.6875 C2.82449219 2.60628906 2.02398437 2.52507812 1.19921875 2.44140625 C-1.0625 2.125 -1.0625 2.125 -4.0625 1.125 C-4.0625 1.785 -4.0625 2.445 -4.0625 3.125 C-2.969375 3.24875 -1.87625 3.3725 -0.75 3.5 C2.9375 4.125 2.9375 4.125 5.9375 6.125 C5.6075 7.115 5.2775 8.105 4.9375 9.125 C3.27612906 8.41298388 1.61524169 7.69981462 -0.04296875 6.98046875 C-1.36946265 6.41856901 -2.70552712 5.87865366 -4.05078125 5.36328125 C-5.75459159 4.69657286 -7.41306514 3.91672873 -9.0625 3.125 C-9.3925 2.135 -9.7225 1.145 -10.0625 0.125 C-6.36026156 -0.81546129 -3.71763042 -0.83890887 0 0 Z " fill="#1A70BC" transform="translate(229.0625,106.875)"/>
<path d="M0 0 C2.875 -0.125 2.875 -0.125 6 0 C8 2 8 2 8.25 4.5 C8 7 8 7 6 9 C2.875 9.125 2.875 9.125 0 9 C0 6.03 0 3.06 0 0 Z " fill="#626263" transform="translate(336,204)"/>
<path d="M0 0 C1.65 0 3.3 0 5 0 C5.33 0.66 5.66 1.32 6 2 C7.32 2 8.64 2 10 2 C9.67 2.66 9.34 3.32 9 4 C8.34 3.67 7.68 3.34 7 3 C7 3.66 7 4.32 7 5 C8.32 5.33 9.64 5.66 11 6 C10.67 6.99 10.34 7.98 10 9 C9.278125 8.814375 8.55625 8.62875 7.8125 8.4375 C4.87173027 7.98004693 2.85896942 8.26483643 0 9 C0 6.03 0 3.06 0 0 Z " fill="#949495" transform="translate(317,219)"/>
<path d="M0 0 C4.95 0 9.9 0 15 0 C15 3 15 3 14 6 C14 5.34 14 4.68 14 4 C12.948125 4.350625 11.89625 4.70125 10.8125 5.0625 C7.18482663 5.95455083 5.46464658 6.18787883 2 5 C1.34 4.34 0.68 3.68 0 3 C0 2.01 0 1.02 0 0 Z " fill="#D5F2F6" transform="translate(265,73)"/>
<path d="M0 0 C6.625 -0.125 6.625 -0.125 10 1 C10.125 4.375 10.125 4.375 10 8 C9.34 8.66 8.68 9.32 8 10 C5.875 9.625 5.875 9.625 4 9 C4 6.66666667 4 4.33333333 4 2 C3.34 2 2.68 2 2 2 C2 3.65 2 5.3 2 7 C1.34 7 0.68 7 0 7 C0 4.69 0 2.38 0 0 Z " fill="#878788" transform="translate(130,206)"/>
<path d="M0 0 C4.62 0 9.24 0 14 0 C14 1.98 14 3.96 14 6 C13.67 5.34 13.34 4.68 13 4 C12.113125 4.33 11.22625 4.66 10.3125 5 C7.2526574 5.92372607 5.15026528 6.43753684 2 6 C0 3 0 3 0 0 Z " fill="#D1F0F4" transform="translate(290,73)"/>
<path d="M0 0 C0.33 0.66 0.66 1.32 1 2 C2.4540625 1.9690625 2.4540625 1.9690625 3.9375 1.9375 C7 2 7 2 8 3 C8.04063832 4.66617115 8.042721 6.33388095 8 8 C6.68 8.33 5.36 8.66 4 9 C4 9.66 4 10.32 4 11 C3.34 11 2.68 11 2 11 C2 10.34 2 9.68 2 9 C1.34 9 0.68 9 0 9 C-0.87890625 2.84765625 -0.87890625 2.84765625 -1 1 C-0.67 0.67 -0.34 0.34 0 0 Z " fill="#888888" transform="translate(141,219)"/>
<path d="M0 0 C0.99 0.33 1.98 0.66 3 1 C2.67 1.33 2.34 1.66 2 2 C2.1018371 3.91424457 2.1018371 3.91424457 2.4375 6.0625 C2.623125 7.361875 2.80875 8.66125 3 10 C1.68 10 0.36 10 -1 10 C-0.979375 9.195625 -0.95875 8.39125 -0.9375 7.5625 C-0.70366379 5.06645115 -0.70366379 5.06645115 -2 4 C-2 6.31 -2 8.62 -2 11 C-3.32 11 -4.64 11 -6 11 C-5.67 8.36 -5.34 5.72 -5 3 C-4.34 3 -3.68 3 -3 3 C-2.67 2.34 -2.34 1.68 -2 1 C-1.67 1.33 -1.34 1.66 -1 2 C-0.67 1.34 -0.34 0.68 0 0 Z " fill="#538CC6" transform="translate(105,109)"/>
<path d="M0 0 C-0.75 4.75 -0.75 4.75 -3 7 C-5.5 7.25 -5.5 7.25 -8 7 C-8.66 6.34 -9.32 5.68 -10 5 C-12.57061311 4.35232207 -12.57061311 4.35232207 -15 4 C-14.67 5.32 -14.34 6.64 -14 8 C-14.66 8 -15.32 8 -16 8 C-16 6.35 -16 4.7 -16 3 C-14.35 3 -12.7 3 -11 3 C-11 2.34 -11 1.68 -11 1 C-9.88625 1.020625 -8.7725 1.04125 -7.625 1.0625 C-4.58237918 1.01004102 -2.83730029 0 0 0 Z " fill="#DAEEF6" transform="translate(305,124)"/>
<path d="M0 0 C0.33 0 0.66 0 1 0 C1 5.28 1 10.56 1 16 C-0.32 16 -1.64 16 -3 16 C-3.2493357 14.39884424 -3.47378648 12.79379841 -3.6875 11.1875 C-3.81511719 10.29417969 -3.94273437 9.40085937 -4.07421875 8.48046875 C-4 6 -4 6 -2.58203125 4.36328125 C-2.05996094 3.91339844 -1.53789062 3.46351562 -1 3 C-0.67 2.01 -0.34 1.02 0 0 Z " fill="#0265C6" transform="translate(373,107)"/>
<path d="M0 0 C-1.36983503 3.16115776 -1.9890638 3.9927092 -5 6 C-7.04296875 6.1953125 -7.04296875 6.1953125 -9.1875 6.125 C-11.0746875 6.063125 -11.0746875 6.063125 -13 6 C-13 4.68 -13 3.36 -13 2 C-8.46298506 0.54815522 -4.81938524 -0.23509196 0 0 Z " fill="#109FAB" transform="translate(279,77)"/>
<path d="M0 0 C1.32 0 2.64 0 4 0 C4 2.64 4 5.28 4 8 C1.6875 8.625 1.6875 8.625 -1 9 C-1.99 8.34 -2.98 7.68 -4 7 C-4 6.34 -4 5.68 -4 5 C-3.34 5 -2.68 5 -2 5 C-1.7834375 4.0409375 -1.7834375 4.0409375 -1.5625 3.0625 C-1 1 -1 1 0 0 Z " fill="#929292" transform="translate(263,221)"/>
<path d="M0 0 C0 0.33 0 0.66 0 1 C-1.258125 1.061875 -2.51625 1.12375 -3.8125 1.1875 C-6.89635345 1.59686108 -7.73231717 1.73231717 -10 4 C-11.78018276 9.34054828 -11.51526632 14.61102866 -10 20 C-12.56789838 18.23456987 -13.84280806 16.81239021 -14.44140625 13.71875 C-14.64891127 9.27412626 -14.53074272 5.99586135 -11.6875 2.4375 C-7.54713202 -1.31771747 -5.2626547 -1.05253094 0 0 Z " fill="#2771B8" transform="translate(303,103)"/>
<path d="M0 0 C4.95 0 9.9 0 15 0 C15 0.33 15 0.66 15 1 C12.69 1.33 10.38 1.66 8 2 C10.31 2.33 12.62 2.66 15 3 C14.67 3.99 14.34 4.98 14 6 C14 5.34 14 4.68 14 4 C12.948125 4.33 11.89625 4.66 10.8125 5 C5.23699422 6.46242775 5.23699422 6.46242775 2 6 C0 3 0 3 0 0 Z " fill="#BDDEEF" transform="translate(342,158)"/>
<path d="M0 0 C0.33 0 0.66 0 1 0 C1.49821546 3.15536461 1.75963636 4.96672983 1 8 C-2.0868607 11.82284832 -5.69175134 14.61529189 -10.6015625 15.43359375 C-13.0625 15.4375 -13.0625 15.4375 -17 15 C-14.41862061 13.27908041 -12.41877135 12.37697887 -9.5625 11.3125 C-4.59153433 9.17053918 -3.16836168 6.87881378 -1 2 C-0.67 1.34 -0.34 0.68 0 0 Z " fill="#2070C4" transform="translate(159,121)"/>
<path d="M0 0 C2 3 2 3 2 7 C3.65 7.33 5.3 7.66 7 8 C7 8.66 7 9.32 7 10 C5.72125 10.061875 4.4425 10.12375 3.125 10.1875 C2.40570313 10.22230469 1.68640625 10.25710937 0.9453125 10.29296875 C0.30335938 10.19628906 -0.33859375 10.09960938 -1 10 C-3.1387261 6.79191085 -3.47730962 5.72301503 -3 2 C-2.01 1.34 -1.02 0.68 0 0 Z " fill="#0863BC" transform="translate(358,115)"/>
<path d="M0 0 C0.66 0 1.32 0 2 0 C2.33 0.99 2.66 1.98 3 3 C3.9590625 2.7215625 3.9590625 2.7215625 4.9375 2.4375 C5.618125 2.293125 6.29875 2.14875 7 2 C8 3 8 3 8.0625 6.0625 C8.041875 7.031875 8.02125 8.00125 8 9 C5.36 9 2.72 9 0 9 C0 6.03 0 3.06 0 0 Z " fill="#828282" transform="translate(149,204)"/>
<path d="M0 0 C0.99 0.33 1.98 0.66 3 1 C2.01 1.33 1.02 1.66 0 2 C0 3.32 0 4.64 0 6 C1.98 5.01 3.96 4.02 6 3 C6 2.01 6 1.02 6 0 C7.32 0.33 8.64 0.66 10 1 C10 2.98 10 4.96 10 7 C6.37 7 2.74 7 -1 7 C-1.33 5.35 -1.66 3.7 -2 2 C-1.34 1.34 -0.68 0.68 0 0 Z " fill="#737374" transform="translate(242,206)"/>
<path d="M0 0 C0.66 0.33 1.32 0.66 2 1 C2 3.97 2 6.94 2 10 C2.66 10 3.32 10 4 10 C4 11.65 4 13.3 4 15 C3.34 14.34 2.68 13.68 2 13 C1.34 13.66 0.68 14.32 0 15 C-1.58476785 10.83998439 -2.39630501 7.45843134 -2 3 C-1.34 2.01 -0.68 1.02 0 0 Z " fill="#7EB1DB" transform="translate(96,112)"/>
<path d="M0 0 C0.98484375 0.01804688 1.9696875 0.03609375 2.984375 0.0546875 C4.10585937 0.08949219 4.10585937 0.08949219 5.25 0.125 C3.93 0.455 2.61 0.785 1.25 1.125 C1.25 1.785 1.25 2.445 1.25 3.125 C0.156875 3.16625 -0.93625 3.2075 -2.0625 3.25 C-5.99996333 3.73065398 -5.99996333 3.73065398 -7.6875 7.1875 C-8.038125 8.156875 -8.38875 9.12625 -8.75 10.125 C-9.41 9.795 -10.07 9.465 -10.75 9.125 C-10.5 5.75 -10.5 5.75 -9.75 2.125 C-6.61253553 -0.14094656 -3.77922246 -0.08998149 0 0 Z " fill="#015DBC" transform="translate(230.75,138.875)"/>
<path d="M0 0 C0.94875 0.04125 1.8975 0.0825 2.875 0.125 C3 2.5 3 2.5 2.875 5.125 C0.875 7.125 0.875 7.125 -1.75 7.25 C-2.53375 7.20875 -3.3175 7.1675 -4.125 7.125 C-4.75 4.75 -4.75 4.75 -5.125 2.125 C-3.125 0.125 -3.125 0.125 0 0 Z " fill="#DAF0F8" transform="translate(366.125,114.875)"/>
<path d="M0 0 C1.134375 0.020625 2.26875 0.04125 3.4375 0.0625 C2.6875 4.8125 2.6875 4.8125 0.4375 7.0625 C-2.1875 6.6875 -2.1875 6.6875 -4.5625 6.0625 C-4.605221 4.39638095 -4.60313832 2.72867115 -4.5625 1.0625 C-3.5625 0.0625 -3.5625 0.0625 0 0 Z " fill="#D9F0F8" transform="translate(268.5625,157.9375)"/>
<path d="M0 0 C1.98 0 3.96 0 6 0 C6 0.99 6 1.98 6 3 C7.32 3.33 8.64 3.66 10 4 C9.34 4 8.68 4 8 4 C8 5.65 8 7.3 8 9 C7.34 9 6.68 9 6 9 C5.67 7.68 5.34 6.36 5 5 C3.68 5 2.36 5 1 5 C0.67 6.32 0.34 7.64 0 9 C0 6.03 0 3.06 0 0 Z " fill="#888888" transform="translate(91,204)"/>
<path d="M0 0 C2 1 4 2 6 3 C5.67 5.64 5.34 8.28 5 11 C4.01 10.67 3.02 10.34 2 10 C1.01 10.495 1.01 10.495 0 11 C0 7.37 0 3.74 0 0 Z " fill="#0464C4" transform="translate(337,152)"/>
<path d="M0 0 C1.2065625 0.0309375 1.2065625 0.0309375 2.4375 0.0625 C2.7675 1.7125 3.0975 3.3625 3.4375 5.0625 C-2.5025 5.5575 -2.5025 5.5575 -8.5625 6.0625 C-8.8925 5.0725 -9.2225 4.0825 -9.5625 3.0625 C-8.1084375 2.5984375 -8.1084375 2.5984375 -6.625 2.125 C-0.53780864 0.01311728 -0.53780864 0.01311728 0 0 Z " fill="#E5F6FA" transform="translate(365.5625,106.9375)"/>
<path d="M0 0 C1.65 0 3.3 0 5 0 C5.33 0.66 5.66 1.32 6 2 C8.52733235 2.65555119 8.52733235 2.65555119 11 3 C11 3.33 11 3.66 11 4 C9.35 4.33 7.7 4.66 6 5 C6 5.33 6 5.66 6 6 C8.97 6.495 8.97 6.495 12 7 C12 7.33 12 7.66 12 8 C4.73846154 8.61538462 4.73846154 8.61538462 1 5.5 C0.34 4.675 -0.32 3.85 -1 3 C-0.67 2.01 -0.34 1.02 0 0 Z " fill="#1370C2" transform="translate(338,161)"/>
<path d="M0 0 C-0.66 1.32 -1.32 2.64 -2 4 C-2.66 4 -3.32 4 -4 4 C-4 8.95 -4 13.9 -4 19 C-4.66 19 -5.32 19 -6 19 C-6 13.39 -6 7.78 -6 2 C-2 0 -2 0 0 0 Z " fill="#0369D2" transform="translate(318,147)"/>
<path d="M0 0 C2 3 2 3 2 6 C1.58322094 8.05055296 1.11981095 10.09186588 0.625 12.125 C0.36976562 13.20007813 0.11453125 14.27515625 -0.1484375 15.3828125 C-0.42945312 16.24648437 -0.71046875 17.11015625 -1 18 C-1.66 18.33 -2.32 18.66 -3 19 C-3.33693273 12.03672362 -2.3030887 6.56654456 0 0 Z " fill="#E0EEF5" transform="translate(93,93)"/>
<path d="M0 0 C0.66 0 1.32 0 2 0 C2 2.97 2 5.94 2 9 C0.33388095 9.042721 -1.33382885 9.04063832 -3 9 C-4 8 -4 8 -4.0625 5.4375 C-4.041875 4.633125 -4.02125 3.82875 -4 3 C-2.68 2.67 -1.36 2.34 0 2 C0 1.34 0 0.68 0 0 Z " fill="#8D8D8E" transform="translate(297,219)"/>
<path d="M0 0 C1.50433594 0.01353516 1.50433594 0.01353516 3.0390625 0.02734375 C3.80992187 0.03894531 4.58078125 0.05054688 5.375 0.0625 C3.26865183 1.16204024 1.52860554 2.03177889 -0.8125 2.5 C-1.7096875 2.7784375 -1.7096875 2.7784375 -2.625 3.0625 C-2.955 4.0525 -3.285 5.0425 -3.625 6.0625 C-5.275 6.0625 -6.925 6.0625 -8.625 6.0625 C-8.25 3.625 -8.25 3.625 -7.625 1.0625 C-4.98041621 -0.25979189 -2.94738699 -0.03427194 0 0 Z " fill="#0D66BF" transform="translate(267.625,145.9375)"/>
<path d="M0 0 C0 2.97 0 5.94 0 9 C-1.66611905 9.042721 -3.33382885 9.04063832 -5 9 C-6 8 -6 8 -6.0625 4.9375 C-6.041875 3.968125 -6.02125 2.99875 -6 2 C-1.125 0 -1.125 0 0 0 Z " fill="#A2C3DE" transform="translate(93,112)"/>
<path d="M0 0 C6.625 -0.25 6.625 -0.25 10 2 C9.34 2 8.68 2 8 2 C8.20625 2.61875 8.4125 3.2375 8.625 3.875 C8.74875 4.57625 8.8725 5.2775 9 6 C8.34 6.66 7.68 7.32 7 8 C4.5 6.625 4.5 6.625 2 5 C2 4.34 2 3.68 2 3 C1.34 3 0.68 3 0 3 C0 2.01 0 1.02 0 0 Z " fill="#3D81C6" transform="translate(87,120)"/>
<path d="M0 0 C0.804375 0.4640625 0.804375 0.4640625 1.625 0.9375 C4.3984957 2.17827439 7.00042837 2.5909675 10 3 C9.67 3.66 9.34 4.32 9 5 C8.21625 4.95875 7.4325 4.9175 6.625 4.875 C3.83883881 4.71271266 3.83883881 4.71271266 2 7 C-0.625 7.125 -0.625 7.125 -3 7 C-2.25 2.25 -2.25 2.25 0 0 Z " fill="#1E73C3" transform="translate(359,103)"/>
<path d="M0 0 C1.98 0 3.96 0 6 0 C6 2.31 6 4.62 6 7 C4.02 7 2.04 7 0 7 C0 4.69 0 2.38 0 0 Z " fill="#367FC2" transform="translate(317,93)"/>
<path d="M0 0 C0.66 0 1.32 0 2 0 C2 0.66 2 1.32 2 2 C3.32 2.66 4.64 3.32 6 4 C5.67 5.65 5.34 7.3 5 9 C3.35 9 1.7 9 0 9 C0 6.03 0 3.06 0 0 Z " fill="#8B8C8C" transform="translate(276,204)"/>
<path d="M0 0 C2 2 2 2 2.875 4 C4.2363704 6.42021404 5.46546555 6.98618622 8 8 C7 9 7 9 4.125 9.25 C1 9 1 9 -0.875 7.8125 C-2.34781139 5.43963721 -2.22223194 3.74086056 -2 1 C-1.34 0.67 -0.68 0.34 0 0 Z " fill="#056AC7" transform="translate(261,158)"/>
<path d="M0 0 C0.66 0 1.32 0 2 0 C1.814375 1.051875 1.62875 2.10375 1.4375 3.1875 C1.04920669 6.57119882 1.11752515 8.76425888 2 12 C1.01 12.66 0.02 13.32 -1 14 C-3 11 -3 11 -2.75 7.5625 C-2.13121575 4.6232748 -1.52580857 2.54301429 0 0 Z " fill="#1E6FC8" transform="translate(52,117)"/>
<path d="M0 0 C3.11257569 0 5.10765685 0.17361624 8 1 C8 4 8 4 7 7 C5.02 7 3.04 7 1 7 C0.67 4.69 0.34 2.38 0 0 Z " fill="#9A9A9A" transform="translate(182,206)"/>
<path d="M0 0 C0.99 0.66 1.98 1.32 3 2 C2.67 3.65 2.34 5.3 2 7 C1.01 7 0.02 7 -1 7 C-1 7.66 -1 8.32 -1 9 C-1.66 9 -2.32 9 -3 9 C-3 6.36 -3 3.72 -3 1 C-2.01 0.67 -1.02 0.34 0 0 Z " fill="#8A8A8A" transform="translate(224,206)"/>
<path d="M0 0 C0.66 0.33 1.32 0.66 2 1 C2 1.66 2 2.32 2 3 C1.34 3 0.68 3 0 3 C-0.33 5.64 -0.66 8.28 -1 11 C-4.63 11 -8.26 11 -12 11 C-12 10.67 -12 10.34 -12 10 C-10.6078125 9.87625 -10.6078125 9.87625 -9.1875 9.75 C-5.97005515 9.28806106 -5.97005515 9.28806106 -4.1875 7.1875 C-3.05117837 5.09427595 -2.55397964 3.29505851 -2 1 C-1.34 0.67 -0.68 0.34 0 0 Z " fill="#0F66B8" transform="translate(274,157)"/>
<path d="M0 0 C2.5625 0.1875 2.5625 0.1875 4.5625 2.1875 C4.5625 3.1775 4.5625 4.1675 4.5625 5.1875 C1.5925 5.1875 -1.3775 5.1875 -4.4375 5.1875 C-3.20220588 0.24632353 -3.20220588 0.24632353 0 0 Z " fill="#D0E8F5" transform="translate(346.4375,149.8125)"/>
<path d="M0 0 C0.91007812 0.00902344 1.82015625 0.01804688 2.7578125 0.02734375 C3.45648438 0.03894531 4.15515625 0.05054688 4.875 0.0625 C4.875 0.3925 4.875 0.7225 4.875 1.0625 C1.905 1.0625 -1.065 1.0625 -4.125 1.0625 C-4.455 2.0525 -4.785 3.0425 -5.125 4.0625 C-6.5625 5.75 -6.5625 5.75 -8.125 7.0625 C-8.785 7.0625 -9.445 7.0625 -10.125 7.0625 C-10.125 10.3625 -10.125 13.6625 -10.125 17.0625 C-10.455 17.0625 -10.785 17.0625 -11.125 17.0625 C-11.75257528 7.1084588 -11.75257528 7.1084588 -9.25 2.9375 C-6.00827417 0.07715368 -4.23876962 -0.0543432 0 0 Z " fill="#317FC5" transform="translate(347.125,144.9375)"/>
<path d="M0 0 C2.875 -0.1875 2.875 -0.1875 6 0 C6.66 0.99 7.32 1.98 8 3 C11.56769552 3.73606499 11.56769552 3.73606499 15 4 C15 4.33 15 4.66 15 5 C12.03 5 9.06 5 6 5 C6 4.01 6 3.02 6 2 C5.01 2 4.02 2 3 2 C3.34786708 3.97536745 3.34786708 3.97536745 4 6 C4.66 6.33 5.32 6.66 6 7 C5.01 7 4.02 7 3 7 C0.64276511 4.46815512 0 3.52809907 0 0 Z " fill="#2979C0" transform="translate(217,117)"/>
<path d="M0 0 C2.5625 0.1875 2.5625 0.1875 4.5625 2.1875 C4.5625 3.1775 4.5625 4.1675 4.5625 5.1875 C1.5925 5.1875 -1.3775 5.1875 -4.4375 5.1875 C-3.20220588 0.24632353 -3.20220588 0.24632353 0 0 Z " fill="#D2F3F5" transform="translate(269.4375,63.8125)"/>
<path d="M0 0 C2.125 0.9375 2.125 0.9375 4 2 C3.67 3.65 3.34 5.3 3 7 C1.68 7 0.36 7 -1 7 C-1.33 7.66 -1.66 8.32 -2 9 C-2 6.36 -2 3.72 -2 1 C-1.34 0.67 -0.68 0.34 0 0 Z " fill="#8B8B8B" transform="translate(230,206)"/>
<path d="M0 0 C2.125 0.375 2.125 0.375 4 1 C4 1.66 4 2.32 4 3 C5.32 3 6.64 3 8 3 C8 8.28 8 13.56 8 19 C7.67 19 7.34 19 7 19 C6.96261719 18.16855469 6.92523438 17.33710938 6.88671875 16.48046875 C6.82097656 15.39378906 6.75523437 14.30710938 6.6875 13.1875 C6.62949219 12.10855469 6.57148438 11.02960938 6.51171875 9.91796875 C5.96094176 6.77727856 5.52728265 5.8468604 3 4 C0.40084462 2.80972016 0.40084462 2.80972016 -2 2 C-1.34 1.34 -0.68 0.68 0 0 Z " fill="#0261C6" transform="translate(322,146)"/>
<path d="M0 0 C0.33 0 0.66 0 1 0 C1.33 1.65 1.66 3.3 2 5 C2.99 4.34 3.98 3.68 5 3 C5 6.3 5 9.6 5 13 C3.35 13 1.7 13 0 13 C0 12.34 0 11.68 0 11 C0.99 11 1.98 11 3 11 C2.67 10.01 2.34 9.02 2 8 C1.01 8 0.02 8 -1 8 C-0.67 5.36 -0.34 2.72 0 0 Z " fill="#0864BD" transform="translate(261,113)"/>
<path d="M0 0 C0.33 0 0.66 0 1 0 C1.33 4.62 1.66 9.24 2 14 C2.33 12.35 2.66 10.7 3 9 C3.33 9 3.66 9 4 9 C4 12.3 4 15.6 4 19 C2.68 19 1.36 19 0 19 C0 12.73 0 6.46 0 0 Z " fill="#0167CB" transform="translate(319,105)"/>
<path d="M0 0 C1.32 0 2.64 0 4 0 C4.33 1.98 4.66 3.96 5 6 C3.34385343 6.38218767 1.67542976 6.71395102 0 7 C-1 6 -1 6 -1.125 3.5 C-1 1 -1 1 0 0 Z " fill="#939393" transform="translate(280,221)"/>
<path d="M0 0 C0.33 0 0.66 0 1 0 C1 2.97 1 5.94 1 9 C-0.65 8.67 -2.3 8.34 -4 8 C-4.33 7.01 -4.66 6.02 -5 5 C-4.34 4.01 -3.68 3.02 -3 2 C-2.01 2 -1.02 2 0 2 C0 1.34 0 0.68 0 0 Z " fill="#878787" transform="translate(249,219)"/>
<path d="M0 0 C1.32 0 2.64 0 4 0 C4.33 1.98 4.66 3.96 5 6 C3.34385343 6.38218767 1.67542976 6.71395102 0 7 C-1 6 -1 6 -1.125 3.5 C-1 1 -1 1 0 0 Z " fill="#888888" transform="translate(121,221)"/>
<path d="M0 0 C1.98 0.66 3.96 1.32 6 2 C5.34 4.31 4.68 6.62 4 9 C2.35 9 0.7 9 -1 9 C-1.09765625 2.84765625 -1.09765625 2.84765625 -1 1 C-0.67 0.67 -0.34 0.34 0 0 Z " fill="#727272" transform="translate(168,219)"/>
<path d="M0 0 C0.99 0 1.98 0 3 0 C3 0.99 3 1.98 3 3 C6.63 3 10.26 3 14 3 C13.67 3.99 13.34 4.98 13 6 C11.39482903 5.91266424 9.79078338 5.80447776 8.1875 5.6875 C6.84751953 5.60048828 6.84751953 5.60048828 5.48046875 5.51171875 C2.67328075 4.93259808 1.69302154 4.2779858 0 2 C0 1.34 0 0.68 0 0 Z " fill="#0164CB" transform="translate(220,119)"/>
<path d="M0 0 C-0.33 1.98 -0.66 3.96 -1 6 C-1.99 6.33 -2.98 6.66 -4 7 C-6 4 -6 4 -6 0 C-3.50907189 -1.24546405 -2.58919267 -0.7767578 0 0 Z " fill="#D4E5F0" transform="translate(117,122)"/>
<path d="M0 0 C1.37478516 0.01740234 1.37478516 0.01740234 2.77734375 0.03515625 C3.69644531 0.04417969 4.61554688 0.05320312 5.5625 0.0625 C6.27277344 0.07410156 6.98304688 0.08570312 7.71484375 0.09765625 C5.71484375 2.09765625 5.71484375 2.09765625 2.71484375 3.09765625 C3.70484375 3.75765625 4.69484375 4.41765625 5.71484375 5.09765625 C3.40484375 5.75765625 1.09484375 6.41765625 -1.28515625 7.09765625 C-1.94515625 5.11765625 -2.60515625 3.13765625 -3.28515625 1.09765625 C-2.28515625 0.09765625 -2.28515625 0.09765625 0 0 Z " fill="#2177C6" transform="translate(336.28515625,102.90234375)"/>
<path d="M0 0 C-0.99 0 -1.98 0 -3 0 C-3.33 0.99 -3.66 1.98 -4 3 C-4.66 3 -5.32 3 -6 3 C-6.66 4.65 -7.32 6.3 -8 8 C-8.66 8 -9.32 8 -10 8 C-10 6.35 -10 4.7 -10 3 C-10.66 2.67 -11.32 2.34 -12 2 C-10.75579353 1.4654744 -9.50429064 0.94791389 -8.25 0.4375 C-7.55390625 0.14746094 -6.8578125 -0.14257812 -6.140625 -0.44140625 C-3.69987216 -1.07831803 -2.3596345 -0.80248831 0 0 Z " fill="#2376CB" transform="translate(100,56)"/>
<path d="M0 0 C1.76949095 -0.10815225 3.54087487 -0.18566083 5.3125 -0.25 C6.29863281 -0.29640625 7.28476562 -0.3428125 8.30078125 -0.390625 C11 0 11 0 12.85546875 2.015625 C13.23316406 2.67046875 13.61085938 3.3253125 14 4 C11.25 5.1875 11.25 5.1875 8 6 C5.625 4.625 5.625 4.625 4 3 C4.66 2.67 5.32 2.34 6 2 C3.03 1.505 3.03 1.505 0 1 C0 0.67 0 0.34 0 0 Z " fill="#2278C3" transform="translate(263,145)"/>
<path d="M0 0 C1.32 0.66 2.64 1.32 4 2 C3.67 3.65 3.34 5.3 3 7 C1.35 6.67 -0.3 6.34 -2 6 C-1.125 1.125 -1.125 1.125 0 0 Z " fill="#8F9090" transform="translate(314,206)"/>
<path d="M0 0 C1.32 0.66 2.64 1.32 4 2 C3.67 3.65 3.34 5.3 3 7 C1.35 6.67 -0.3 6.34 -2 6 C-1.125 1.125 -1.125 1.125 0 0 Z " fill="#909090" transform="translate(196,206)"/>
<path d="M0 0 C1.32 0.66 2.64 1.32 4 2 C3.67 3.65 3.34 5.3 3 7 C1.35 6.67 -0.3 6.34 -2 6 C-1.125 1.125 -1.125 1.125 0 0 Z " fill="#909191" transform="translate(261,206)"/>
<path d="M0 0 C0.33 0 0.66 0 1 0 C1 2.64 1 5.28 1 8 C-1.3125 9.125 -1.3125 9.125 -4 10 C-4.99 9.34 -5.98 8.68 -7 8 C-6.67 5.69 -6.34 3.38 -6 1 C-5.34 1.33 -4.68 1.66 -4 2 C-4.33 3.65 -4.66 5.3 -5 7 C-3.68 7 -2.36 7 -1 7 C-1.020625 6.030625 -1.04125 5.06125 -1.0625 4.0625 C-1 1 -1 1 0 0 Z " fill="#125FBC" transform="translate(109,112)"/>
<path d="M0 0 C1.2065625 0.0309375 1.2065625 0.0309375 2.4375 0.0625 C2.7675 1.7125 3.0975 3.3625 3.4375 5.0625 C0.7975 5.0625 -1.8425 5.0625 -4.5625 5.0625 C-3.43829114 0.08386076 -3.43829114 0.08386076 0 0 Z " fill="#DCF7F8" transform="translate(294.5625,63.9375)"/>
<path d="M0 0 C0.33 0.99 0.66 1.98 1 3 C-0.98 3.99 -0.98 3.99 -3 5 C-3.66 4.34 -4.32 3.68 -5 3 C-6.32 3 -7.64 3 -9 3 C-9.33 3.66 -9.66 4.32 -10 5 C-10.66 5 -11.32 5 -12 5 C-9.28085049 -1.02097391 -6.0998139 -0.0983841 0 0 Z " fill="#2EAEBC" transform="translate(274,59)"/>
<path d="M0 0 C0.33 0.66 0.66 1.32 1 2 C1.66 2 2.32 2 3 2 C3 1.34 3 0.68 3 0 C3.99 0.33 4.98 0.66 6 1 C3.61827612 3.73544525 1.29334709 4.92545358 -2.0625 6.25 C-3.37927734 6.78367188 -3.37927734 6.78367188 -4.72265625 7.328125 C-7 8 -7 8 -9 7 C-3.25 4 -3.25 4 -1 4 C-0.67 2.68 -0.34 1.36 0 0 Z " fill="#1D6BC3" transform="translate(157,176)"/>
<path d="M0 0 C0 1.65 0 3.3 0 5 C-1.875 5.625 -1.875 5.625 -4 6 C-4.66 5.34 -5.32 4.68 -6 4 C-6 2.68 -6 1.36 -6 0 C-2.25 -1.125 -2.25 -1.125 0 0 Z " fill="#E2F0F6" transform="translate(124,121)"/>
<path d="M0 0 C0.99 1.32 1.98 2.64 3 4 C2.67 4.66 2.34 5.32 2 6 C3.65 6.33 5.3 6.66 7 7 C6.67 7.66 6.34 8.32 6 9 C-0.15234375 8.4140625 -0.15234375 8.4140625 -2 8 C-2.33 7.34 -2.66 6.68 -3 6 C-2.06553465 3.96855359 -1.06775224 1.96466413 0 0 Z " fill="#2277C6" transform="translate(295,117)"/>
<path d="M0 0 C1.67542976 0.28604898 3.34385343 0.61781233 5 1 C5 1.99 5 2.98 5 4 C3.68 4 2.36 4 1 4 C1 4.66 1 5.32 1 6 C2.32 5.67 3.64 5.34 5 5 C4.67 5.66 4.34 6.32 4 7 C2.35 6.67 0.7 6.34 -1 6 C-1.042721 4.33388095 -1.04063832 2.66617115 -1 1 C-0.67 0.67 -0.34 0.34 0 0 Z " fill="#7A7A7A" transform="translate(114,221)"/>
<path d="M0 0 C2.0625 0.4375 2.0625 0.4375 4 1 C4 2.98 4 4.96 4 7 C2.35 7 0.7 7 -1 7 C-1.04254356 5.00045254 -1.04080783 2.99958364 -1 1 C-0.67 0.67 -0.34 0.34 0 0 Z " fill="#818181" transform="translate(284,206)"/>
<path d="M0 0 C1.65 0 3.3 0 5 0 C4.67 0.99 4.34 1.98 4 3 C3.34 3 2.68 3 2 3 C1.67 9.27 1.34 15.54 1 22 C0.67 22 0.34 22 0 22 C0 14.74 0 7.48 0 0 Z " fill="#0355B1" transform="translate(311,146)"/>
<path d="M0 0 C0.33 0 0.66 0 1 0 C1.66833425 5.09604866 2 9.85203553 2 15 C4.31 15 6.62 15 9 15 C9 15.33 9 15.66 9 16 C2.9453125 16.1953125 2.9453125 16.1953125 1 16 C0.34 15.34 -0.32 14.68 -1 14 C-0.9765625 10.7421875 -0.9765625 10.7421875 -0.625 6.875 C-0.51414062 5.59367187 -0.40328125 4.31234375 -0.2890625 2.9921875 C-0.19367188 2.00476563 -0.09828125 1.01734375 0 0 Z " fill="#3581C3" transform="translate(334,111)"/>
<path d="M0 0 C-0.165 0.556875 -0.33 1.11375 -0.5 1.6875 C-1.04041351 4.18691249 -1.07082065 6.45045662 -1 9 C-1.66 9 -2.32 9 -3 9 C-3.66 7.02 -4.32 5.04 -5 3 C-5.99 3.33 -6.98 3.66 -8 4 C-5.97675095 -0.48005146 -4.79569304 -1.43870791 0 0 Z " fill="#287DC7" transform="translate(363,113)"/>
<path d="M0 0 C1.2065625 0.0309375 1.2065625 0.0309375 2.4375 0.0625 C2.125 1.9375 2.125 1.9375 1.4375 4.0625 C-2.2066774 6.4919516 -4.27491272 6.22429575 -8.5625 6.0625 C-8.5625 5.7325 -8.5625 5.4025 -8.5625 5.0625 C-6.9125 4.7325 -5.2625 4.4025 -3.5625 4.0625 C-3.5625 3.0725 -3.5625 2.0825 -3.5625 1.0625 C-2.5625 0.0625 -2.5625 0.0625 0 0 Z " fill="#109EAD" transform="translate(300.5625,76.9375)"/>
<path d="M0 0 C1.65 0.33 3.3 0.66 5 1 C5 2.98 5 4.96 5 7 C3.35 7 1.7 7 0 7 C0 5.68 0 4.36 0 3 C0.99 3 1.98 3 3 3 C3 2.34 3 1.68 3 1 C2.01 1.33 1.02 1.66 0 2 C0 1.34 0 0.68 0 0 Z " fill="#757576" transform="translate(311,221)"/>
<path d="M0 0 C0.66 0 1.32 0 2 0 C2 1.65 2 3.3 2 5 C2.66 5 3.32 5 4 5 C4 3.35 4 1.7 4 0 C4.66 0 5.32 0 6 0 C6 2.31 6 4.62 6 7 C4.33388095 7.042721 2.66617115 7.04063832 1 7 C0 6 0 6 -0.0625 2.9375 C-0.041875 1.968125 -0.02125 0.99875 0 0 Z " fill="#7E7F7F" transform="translate(194,221)"/>
<path d="M0 0 C1.32 0.33 2.64 0.66 4 1 C4 2.98 4 4.96 4 7 C2.35 7 0.7 7 -1 7 C-1.33 6.01 -1.66 5.02 -2 4 C-1.34 3.67 -0.68 3.34 0 3 C0 2.01 0 1.02 0 0 Z " fill="#777778" transform="translate(216,206)"/>
<path d="M0 0 C0.66 0.33 1.32 0.66 2 1 C1.85691406 1.69480469 1.71382812 2.38960938 1.56640625 3.10546875 C0.96733421 6.16693345 0.44485302 9.23455833 -0.0625 12.3125 C-0.23910156 13.38113281 -0.41570312 14.44976562 -0.59765625 15.55078125 C-0.73042969 16.35902344 -0.86320313 17.16726562 -1 18 C-3.45811625 14.31282562 -3.31118164 12.35654296 -3 8 C-2.34 7.01 -1.68 6.02 -1 5 C-0.61500109 3.34450469 -0.27206865 1.6777567 0 0 Z " fill="#05A2B3" transform="translate(249,63)"/>
<path d="M0 0 C1.32 0 2.64 0 4 0 C4.33 1.32 4.66 2.64 5 4 C4.01 4.495 4.01 4.495 3 5 C3.66 5.33 4.32 5.66 5 6 C3.34385343 6.38218767 1.67542976 6.71395102 0 7 C-1 6 -1 6 -1.125 3.5 C-1 1 -1 1 0 0 Z " fill="#757676" transform="translate(301,221)"/>
<path d="M0 0 C1.32 0 2.64 0 4 0 C3.67 3.3 3.34 6.6 3 10 C2.34 10 1.68 10 1 10 C-0.60725635 6.78548731 -0.05748185 3.56387464 0 0 Z " fill="#DAEAF3" transform="translate(106,121)"/>
<path d="M0 0 C0.99 0.33 1.98 0.66 3 1 C2.835 1.886875 2.67 2.77375 2.5 3.6875 C2.07004243 6.53596892 1.91558965 9.13004802 2 12 C1.34 12 0.68 12 0 12 C-1.1898306 9.6203388 -1.13349966 8.08514265 -1.125 5.4375 C-1.12886719 4.22900391 -1.12886719 4.22900391 -1.1328125 2.99609375 C-1 1 -1 1 0 0 Z " fill="#0169D4" transform="translate(292,109)"/>
<path d="M0 0 C2.125 0.375 2.125 0.375 4 1 C4 1.99 4 2.98 4 4 C2.68 4 1.36 4 0 4 C0 4.66 0 5.32 0 6 C1.32 5.67 2.64 5.34 4 5 C4 5.66 4 6.32 4 7 C2.35 7 0.7 7 -1 7 C-1.625 4.625 -1.625 4.625 -2 2 C-1.34 1.34 -0.68 0.68 0 0 Z " fill="#747474" transform="translate(110,206)"/>
<path d="M0 0 C1.32 0 2.64 0 4 0 C4 2.97 4 5.94 4 9 C2.68 9 1.36 9 0 9 C0 6.03 0 3.06 0 0 Z " fill="#878787" transform="translate(64,204)"/>
<path d="M0 0 C-0.375 1.9375 -0.375 1.9375 -1 4 C-4.2830098 5.6415049 -7.42545033 4.51888624 -11 4 C-10.01 3.67 -9.02 3.34 -8 3 C-8 2.34 -8 1.68 -8 1 C-2.25 0 -2.25 0 0 0 Z " fill="#0E65BC" transform="translate(305,120)"/>
<path d="M0 0 C0.66 0.33 1.32 0.66 2 1 C2 3.64 2 6.28 2 9 C0.68 8.67 -0.64 8.34 -2 8 C-1.125 1.125 -1.125 1.125 0 0 Z " fill="#E3EFF5" transform="translate(112,111)"/>
<path d="M0 0 C0.66 0 1.32 0 2 0 C2.33 3.96 2.66 7.92 3 12 C2.01 12 1.02 12 0 12 C0 8.04 0 4.08 0 0 Z " fill="#0066D0" transform="translate(383,112)"/>
<path d="M0 0 C0 0.99 0 1.98 0 3 C-3.96 3 -7.92 3 -12 3 C-7.09396701 -0.67952474 -5.82490317 -0.29124516 0 0 Z " fill="#01A4B4" transform="translate(239,53)"/>
<path d="M0 0 C1.32 0 2.64 0 4 0 C4 2.97 4 5.94 4 9 C2.68 9 1.36 9 0 9 C0 6.03 0 3.06 0 0 Z " fill="#787878" transform="translate(317,219)"/>
<path d="M0 0 C0.33 0.66 0.66 1.32 1 2 C1.66 2 2.32 2 3 2 C3 4.97 3 7.94 3 11 C2.67 10.34 2.34 9.68 2 9 C1.34 9 0.68 9 0 9 C-0.87890625 2.84765625 -0.87890625 2.84765625 -1 1 C-0.67 0.67 -0.34 0.34 0 0 Z " fill="#9F9F9F" transform="translate(141,219)"/>
<path d="M0 0 C1.65 0 3.3 0 5 0 C4.67 1.65 4.34 3.3 4 5 C5.32 4.67 6.64 4.34 8 4 C7.67 4.66 7.34 5.32 7 6 C4.69 6 2.38 6 0 6 C0 4.02 0 2.04 0 0 Z " fill="#777777" transform="translate(359,207)"/>
<path d="M0 0 C1.65 0 3.3 0 5 0 C4.64978759 2.53903996 4.15988127 3.82093298 2.4375 5.75 C-1.13999057 7.58461055 -4.00628343 7.19968583 -8 7 C-8 6.67 -8 6.34 -8 6 C-7.04287109 5.81824219 -7.04287109 5.81824219 -6.06640625 5.6328125 C-5.24011719 5.46523437 -4.41382813 5.29765625 -3.5625 5.125 C-2.73878906 4.96257812 -1.91507812 4.80015625 -1.06640625 4.6328125 C-0.38449219 4.42398438 0.29742187 4.21515625 1 4 C1.33 3.34 1.66 2.68 2 2 C1.34 2 0.68 2 0 2 C0 1.34 0 0.68 0 0 Z " fill="#0D62B1" transform="translate(344,119)"/>
<path d="M0 0 C0.66 0 1.32 0 2 0 C2 2.31 2 4.62 2 7 C0.35 7 -1.3 7 -3 7 C-2.25 2.25 -2.25 2.25 0 0 Z " fill="#E3F1F7" transform="translate(119,112)"/>
<path d="M0 0 C1.32 0.33 2.64 0.66 4 1 C4.33 2.98 4.66 4.96 5 7 C3.35 7 1.7 7 0 7 C0 4.69 0 2.38 0 0 Z " fill="#0167C9" transform="translate(219,100)"/>
<path d="M0 0 C2.375 -0.1875 2.375 -0.1875 5 0 C5.66 0.99 6.32 1.98 7 3 C6.34 3 5.68 3 5 3 C4.67 3.99 4.34 4.98 4 6 C3.01 5.67 2.02 5.34 1 5 C0.67 3.35 0.34 1.7 0 0 Z " fill="#1771B9" transform="translate(290,128)"/>
<path d="M0 0 C-0.33 1.32 -0.66 2.64 -1 4 C-2.32 4.33 -3.64 4.66 -5 5 C-5.66 3.68 -6.32 2.36 -7 1 C-4.53721199 -0.231394 -2.7204945 -0.07159196 0 0 Z " fill="#E6F1F6" transform="translate(132,119)"/>
<path d="M0 0 C4.455 0.99 4.455 0.99 9 2 C9 2.66 9 3.32 9 4 C10.32 4.33 11.64 4.66 13 5 C13 5.66 13 6.32 13 7 C12.34 6.731875 11.68 6.46375 11 6.1875 C7.35060933 4.74294953 3.67754567 3.37128822 0 2 C0 1.34 0 0.68 0 0 Z " fill="#0169CD" transform="translate(225,108)"/>
<path d="M0 0 C0.66 0 1.32 0 2 0 C2.042721 1.66611905 2.04063832 3.33382885 2 5 C1.67 5.33 1.34 5.66 1 6 C0.95907063 8.33297433 0.95758277 10.66705225 1 13 C0.34 13 -0.32 13 -1 13 C-2.0070238 7.96488101 -1.97387813 4.76052962 0 0 Z " fill="#4E84C5" transform="translate(95,98)"/>
<path d="M0 0 C2.0625 0.4375 2.0625 0.4375 4 1 C4 1.99 4 2.98 4 4 C3.67 4.33 3.34 4.66 3 5 C3.33 5.66 3.66 6.32 4 7 C2.35 6.67 0.7 6.34 -1 6 C-1.042721 4.33388095 -1.04063832 2.66617115 -1 1 C-0.67 0.67 -0.34 0.34 0 0 Z " fill="#707070" transform="translate(239,221)"/>
<path d="M0 0 C1.32 0.33 2.64 0.66 4 1 C4 2.65 4 4.3 4 6 C2.68 6.33 1.36 6.66 0 7 C0 4.69 0 2.38 0 0 Z " fill="#F1F1F1" transform="translate(338,205)"/>
<path d="M0 0 C3.3 0 6.6 0 10 0 C10.33 1.32 10.66 2.64 11 4 C9.68 4 8.36 4 7 4 C7 3.34 7 2.68 7 2 C4.69 2.33 2.38 2.66 0 3 C0 2.01 0 1.02 0 0 Z " fill="#1878CD" transform="translate(253,120)"/>
<path d="M0 0 C0.33 0 0.66 0 1 0 C1 2.64 1 5.28 1 8 C1.66 8.33 2.32 8.66 3 9 C1.68 9 0.36 9 -1 9 C-1 11.31 -1 13.62 -1 16 C-1.33 16 -1.66 16 -2 16 C-2.33 12.7 -2.66 9.4 -3 6 C-2.01 6 -1.02 6 0 6 C0 4.02 0 2.04 0 0 Z " fill="#055CBB" transform="translate(88,105)"/>
<path d="M0 0 C0.66 0.66 1.32 1.32 2 2 C1.34 2 0.68 2 0 2 C0 3.32 0 4.64 0 6 C1.98 6 3.96 6 6 6 C6 6.33 6 6.66 6 7 C-0.625 7.25 -0.625 7.25 -4 5 C-3 2 -3 2 0 0 Z " fill="#32B4BE" transform="translate(266,77)"/>
<path d="M0 0 C0.8971875 0.309375 0.8971875 0.309375 1.8125 0.625 C-2.18363521 4.33569698 -4.55832652 6.22291618 -10.1875 6.625 C-3.20231959 -0.54896907 -3.20231959 -0.54896907 0 0 Z " fill="#1864BF" transform="translate(88.1875,59.375)"/>
<path d="M0 0 C0.98120464 3.05263664 0.98120464 4.94736336 0 8 C-1.32 7.67 -2.64 7.34 -4 7 C-3.6875 5.0625 -3.6875 5.0625 -3 3 C-2.01 2.67 -1.02 2.34 0 2 C0 1.34 0 0.68 0 0 Z " fill="#B2B2B2" transform="translate(306,204)"/>
<path d="M0 0 C0.33 0 0.66 0 1 0 C1 2.97 1 5.94 1 9 C-1 7 -1 7 -2 5 C-4.01669827 3.86649466 -4.01669827 3.86649466 -6 3 C-5.67 2.34 -5.34 1.68 -5 1 C-3.02 1.495 -3.02 1.495 -1 2 C-0.67 1.34 -0.34 0.68 0 0 Z " fill="#DADADA" transform="translate(63,204)"/>
<path d="M0 0 C0 2.97 0 5.94 0 9 C-0.33 9 -0.66 9 -1 9 C-1.33 7.35 -1.66 5.7 -2 4 C-2 5.65 -2 7.3 -2 9 C-2.66 9 -3.32 9 -4 9 C-4.33 6.69 -4.66 4.38 -5 2 C-2 0 -2 0 0 0 Z " fill="#6F6F6F" transform="translate(258,204)"/>
<path d="M0 0 C2.64 0.33 5.28 0.66 8 1 C8.33 2.98 8.66 4.96 9 7 C7 7 7 7 4.5 4.625 C3.675 3.75875 2.85 2.8925 2 2 C1.34 1.34 0.68 0.68 0 0 Z " fill="#0167CF" transform="translate(293,146)"/>
<path d="M0 0 C2.0625 0.4375 2.0625 0.4375 4 1 C3.25 2.9375 3.25 2.9375 2 5 C-0.125 5.75 -0.125 5.75 -2 6 C-1.125 1.125 -1.125 1.125 0 0 Z " fill="#E5F1F6" transform="translate(131,111)"/>
<path d="M0 0 C0 0.33 0 0.66 0 1 C-1.2375 1.0825 -2.475 1.165 -3.75 1.25 C-6.98882964 1.63475459 -7.87907883 1.90024003 -10.5 4.0625 C-11.2425 5.0215625 -11.2425 5.0215625 -12 6 C-12 3 -12 3 -10.6875 1.375 C-7.08836737 -1.55762659 -4.28513537 -0.85702707 0 0 Z " fill="#387BBB" transform="translate(303,103)"/>
<path d="M0 0 C2.125 0.375 2.125 0.375 4 1 C4 1.99 4 2.98 4 4 C2.68 4 1.36 4 0 4 C-0.33 4.66 -0.66 5.32 -1 6 C-1.625 4.125 -1.625 4.125 -2 2 C-1.34 1.34 -0.68 0.68 0 0 Z " fill="#757575" transform="translate(176,221)"/>
<path d="M0 0 C0.99 0.33 1.98 0.66 3 1 C3.33 3.64 3.66 6.28 4 9 C2.02 9 0.04 9 -2 9 C-1.01 8.34 -0.02 7.68 1 7 C0.67 4.69 0.34 2.38 0 0 Z " fill="#0167D2" transform="translate(351,148)"/>
<path d="M0 0 C1.65 0 3.3 0 5 0 C5.33 1.32 5.66 2.64 6 4 C4.02 4 2.04 4 0 4 C0 2.68 0 1.36 0 0 Z " fill="#DCF0F7" transform="translate(265,149)"/>
<path d="M0 0 C0.66 0.33 1.32 0.66 2 1 C0.87548273 3.9719385 -0.22293791 6.33440687 -2 9 C-2.79953138 5.71303767 -3.09658936 4.28976808 -2 1 C-1.34 0.67 -0.68 0.34 0 0 Z " fill="#0166CE" transform="translate(223,140)"/>
<path d="M0 0 C2 2 2 2 2.125 4.625 C2.08375 5.40875 2.0425 6.1925 2 7 C0.68 7 -0.64 7 -2 7 C-2.125 4.625 -2.125 4.625 -2 2 C-1.34 1.34 -0.68 0.68 0 0 Z " fill="#C7DFF0" transform="translate(125,111)"/>
<path d="M0 0 C0.66 0 1.32 0 2 0 C2 0.66 2 1.32 2 2 C2.99 2 3.98 2 5 2 C5 3.98 5 5.96 5 8 C4.67 6.68 4.34 5.36 4 4 C3.01 4 2.02 4 1 4 C0.67 5.32 0.34 6.64 0 8 C0 5.36 0 2.72 0 0 Z " fill="#666667" transform="translate(130,219)"/>
<path d="M0 0 C-2.62198774 2.15377564 -4.64404172 3.40072174 -8 4 C-8 2.68 -8 1.36 -8 0 C-4.71023192 -1.09658936 -3.28696233 -0.79953138 0 0 Z " fill="#E5E5E5" transform="translate(250,208)"/>
<path d="M0 0 C5.37305699 -0.35233161 5.37305699 -0.35233161 8 0 C10 2 10 2 11 4 C9.68 4 8.36 4 7 4 C6.67 3.34 6.34 2.68 6 2 C3.69 2 1.38 2 -1 2 C-0.67 1.34 -0.34 0.68 0 0 Z " fill="#2270B8" transform="translate(319,145)"/>
<path d="M0 0 C0.391875 0.515625 0.78375 1.03125 1.1875 1.5625 C0.1975 1.5625 -0.7925 1.5625 -1.8125 1.5625 C-2.8025 3.0475 -2.8025 3.0475 -3.8125 4.5625 C-6.2875 3.5725 -6.2875 3.5725 -8.8125 2.5625 C-6.8125 -0.4375 -6.8125 -0.4375 -4.375 -1.3125 C-1.8125 -1.4375 -1.8125 -1.4375 0 0 Z " fill="#2482CD" transform="translate(353.8125,147.4375)"/>
<path d="M0 0 C2 3 2 3 2 7 C0.68 7 -0.64 7 -2 7 C-2.125 4.625 -2.125 4.625 -2 2 C-1.34 1.34 -0.68 0.68 0 0 Z " fill="#CFE6F3" transform="translate(106,112)"/>
<path d="M0 0 C0.33 1.32 0.66 2.64 1 4 C-4.94 4.495 -4.94 4.495 -11 5 C-11.33 4.01 -11.66 3.02 -12 2 C-8.04 2.33 -4.08 2.66 0 3 C0 2.01 0 1.02 0 0 Z " fill="#C6E7F4" transform="translate(368,108)"/>
<path d="M0 0 C0 0.33 0 0.66 0 1 C-1.175625 1.1546875 -1.175625 1.1546875 -2.375 1.3125 C-5.33045181 1.77595022 -5.33045181 1.77595022 -7 5 C-9.625 5.6875 -9.625 5.6875 -12 6 C-9.92191188 -0.23426437 -6.0915195 -0.35143382 0 0 Z " fill="#40B9C4" transform="translate(297,59)"/>
<path d="M0 0 C1.67542976 0.28604898 3.34385343 0.61781233 5 1 C5 1.66 5 2.32 5 3 C3.68 3 2.36 3 1 3 C1 3.66 1 4.32 1 5 C2.32 4.67 3.64 4.34 5 4 C5 4.66 5 5.32 5 6 C3.35 6 1.7 6 0 6 C-0.38218767 4.34385343 -0.71395102 2.67542976 -1 1 C-0.67 0.67 -0.34 0.34 0 0 Z " fill="#5F5F60" transform="translate(102,207)"/>
<path d="M0 0 C0.33 0 0.66 0 1 0 C1 3.96 1 7.92 1 12 C1.66 12 2.32 12 3 12 C3 12.99 3 13.98 3 15 C2.01 15 1.02 15 0 15 C0 10.05 0 5.1 0 0 Z " fill="#0066D0" transform="translate(286,152)"/>
<path d="M0 0 C0.99 0 1.98 0 3 0 C2.67 2.64 2.34 5.28 2 8 C1.34 7.67 0.68 7.34 0 7 C-0.6875 4 -0.6875 4 -1 1 C-0.67 0.67 -0.34 0.34 0 0 Z " fill="#D3E4EF" transform="translate(102,121)"/>
<path d="M0 0 C0.99 0.33 1.98 0.66 3 1 C3 3.31 3 5.62 3 8 C2.67 8 2.34 8 2 8 C2 6.35 2 4.7 2 3 C0.68 3 -0.64 3 -2 3 C-2.33 3.66 -2.66 4.32 -3 5 C-3.66 4.34 -4.32 3.68 -5 3 C-2.6875 1.4375 -2.6875 1.4375 0 0 Z " fill="#2B6DBA" transform="translate(143,106)"/>
<path d="M0 0 C2.875 -0.125 2.875 -0.125 6 0 C6.66 0.66 7.32 1.32 8 2 C7 3 7 3 3.4375 3.0625 C2.303125 3.041875 1.16875 3.02125 0 3 C0 2.01 0 1.02 0 0 Z " fill="#05AAB7" transform="translate(266,79)"/>
<path d="M0 0 C1.32 0 2.64 0 4 0 C4 1.65 4 3.3 4 5 C2.68 4.67 1.36 4.34 0 4 C0 2.68 0 1.36 0 0 Z " fill="#0E9DAA" transform="translate(252,60)"/>
<path d="M0 0 C0.66 0.33 1.32 0.66 2 1 C2 2.98 2 4.96 2 7 C1.01 7 0.02 7 -1 7 C-2 4 -2 4 -1.0625 1.8125 C-0.5365625 0.9153125 -0.5365625 0.9153125 0 0 Z " fill="#CBCBCB" transform="translate(207,222)"/>
<path d="M0 0 C2.0625 0.4375 2.0625 0.4375 4 1 C4 1.99 4 2.98 4 4 C2.68 4 1.36 4 0 4 C-0.33 4.66 -0.66 5.32 -1 6 C-1.042721 4.33388095 -1.04063832 2.66617115 -1 1 C-0.67 0.67 -0.34 0.34 0 0 Z " fill="#757676" transform="translate(297,206)"/>
<path d="M0 0 C3.63 0 7.26 0 11 0 C11 2.31 11 4.62 11 7 C10.690625 6.360625 10.38125 5.72125 10.0625 5.0625 C9.1654837 3.06389179 9.1654837 3.06389179 8 2 C6.65252916 1.76924918 5.29622435 1.58846937 3.9375 1.4375 C2.638125 1.293125 1.33875 1.14875 0 1 C0 0.67 0 0.34 0 0 Z " fill="#287CC4" transform="translate(225,142)"/>
<path d="M0 0 C2.31 0 4.62 0 7 0 C6.67 0.99 6.34 1.98 6 3 C3.69 3 1.38 3 -1 3 C-0.67 2.01 -0.34 1.02 0 0 Z " fill="#0666C4" transform="translate(295,131)"/>
<path d="M0 0 C1.98 0.66 3.96 1.32 6 2 C6 2.66 6 3.32 6 4 C3.69 4 1.38 4 -1 4 C-0.67 2.68 -0.34 1.36 0 0 Z " fill="#0164CF" transform="translate(359,121)"/>
<path d="M0 0 C0.33 0 0.66 0 1 0 C1.0270043 1.45823212 1.04639787 2.91660675 1.0625 4.375 C1.07410156 5.18710938 1.08570313 5.99921875 1.09765625 6.8359375 C1 9 1 9 0 11 C-0.66 11 -1.32 11 -2 11 C-2.24042276 6.91281305 -1.42258812 3.82320557 0 0 Z " fill="#0066CF" transform="translate(276,113)"/>
<path d="M0 0 C0.33 0 0.66 0 1 0 C1 2.64 1 5.28 1 8 C0.01 8 -0.98 8 -2 8 C-1.125 1.125 -1.125 1.125 0 0 Z " fill="#EBF6FA" transform="translate(96,112)"/>
<path d="M0 0 C2.1519437 3.22791555 2.20086443 4.28400809 2 8 C1.34 8 0.68 8 0 8 C-0.66 7.34 -1.32 6.68 -2 6 C-1.44444444 1.44444444 -1.44444444 1.44444444 0 0 Z " fill="#1B77CA" transform="translate(331,106)"/>
<path d="M0 0 C0 2.97 0 5.94 0 9 C-0.99 9.495 -0.99 9.495 -2 10 C-2.33 7.03 -2.66 4.06 -3 1 C-1 0 -1 0 0 0 Z " fill="#1F6ABC" transform="translate(146,89)"/>
<path d="M0 0 C1.051875 0.433125 1.051875 0.433125 2.125 0.875 C5.05452503 2.02133588 8.00921653 3.02625654 11 4 C11 4.33 11 4.66 11 5 C4.64948454 5.36637589 4.64948454 5.36637589 1.5625 3.625 C0 2 0 2 0 0 Z " fill="#34AFB8" transform="translate(286,79)"/>
<path d="M0 0 C2.475 0.495 2.475 0.495 5 1 C4.01 1.33 3.02 1.66 2 2 C2 3.65 2 5.3 2 7 C1.34 7 0.68 7 0 7 C0 4.69 0 2.38 0 0 Z " fill="#818181" transform="translate(130,206)"/>
<path d="M0 0 C1.9375 0.3125 1.9375 0.3125 4 1 C4.33 1.99 4.66 2.98 5 4 C3.35 4.33 1.7 4.66 0 5 C0 3.35 0 1.7 0 0 Z " fill="#B2B2B2" transform="translate(143,205)"/>
<path d="M0 0 C0.66 0 1.32 0 2 0 C3.4783226 2.95664519 3.06032783 5.74229737 3 9 C2.34 9 1.68 9 1 9 C0.67 6.03 0.34 3.06 0 0 Z " fill="#1C6FBA" transform="translate(354,149)"/>
<path d="M0 0 C0.66 1.32 1.32 2.64 2 4 C-1.63 3.67 -5.26 3.34 -9 3 C-9 2.67 -9 2.34 -9 2 C-6.03 1.34 -3.06 0.68 0 0 Z " fill="#126DC7" transform="translate(234,150)"/>
<path d="M0 0 C0.33 1.32 0.66 2.64 1 4 C1.99 4 2.98 4 4 4 C4 4.66 4 5.32 4 6 C4.99 5.67 5.98 5.34 7 5 C7 5.66 7 6.32 7 7 C5.02 7.33 3.04 7.66 1 8 C-0.35439668 5.29120665 -0.06501451 2.99066732 0 0 Z " fill="#437BB9" transform="translate(109,123)"/>
<path d="M0 0 C0.99 0.33 1.98 0.66 3 1 C2.67 2.98 2.34 4.96 2 7 C1.01 6.34 0.02 5.68 -1 5 C-0.67 3.35 -0.34 1.7 0 0 Z " fill="#086DC6" transform="translate(331,117)"/>
<path d="M0 0 C0.66 0 1.32 0 2 0 C2 2.31 2 4.62 2 7 C1.01 7 0.02 7 -1 7 C-0.67 4.69 -0.34 2.38 0 0 Z " fill="#E0EFF6" transform="translate(100,113)"/>
<path d="M0 0 C1.65 0.33 3.3 0.66 5 1 C5 1.99 5 2.98 5 4 C3.02 4 1.04 4 -1 4 C-0.67 2.68 -0.34 1.36 0 0 Z " fill="#317EC5" transform="translate(345,107)"/>
<path d="M0 0 C0.66 0.33 1.32 0.66 2 1 C0.625 3 0.625 3 -1 5 C-1.66 5 -2.32 5 -3 5 C-3 7.31 -3 9.62 -3 12 C-3.33 12 -3.66 12 -4 12 C-4.49230769 4.61538462 -4.49230769 4.61538462 -2 1.5 C-1.34 1.005 -0.68 0.51 0 0 Z " fill="#3A83BE" transform="translate(222,95)"/>
<path d="M0 0 C0.99 0.33 1.98 0.66 3 1 C2.67 2.65 2.34 4.3 2 6 C1.01 6 0.02 6 -1 6 C-1.042721 4.33388095 -1.04063832 2.66617115 -1 1 C-0.67 0.67 -0.34 0.34 0 0 Z " fill="#03A6B6" transform="translate(276,65)"/>
<path d="M0 0 C1.4540625 0.0309375 1.4540625 0.0309375 2.9375 0.0625 C1.9475 0.5575 1.9475 0.5575 0.9375 1.0625 C1.5975 2.0525 2.2575 3.0425 2.9375 4.0625 C2.6075 5.0525 2.2775 6.0425 1.9375 7.0625 C1.504375 6.44375 1.07125 5.825 0.625 5.1875 C-1.05990483 2.8427755 -1.05990483 2.8427755 -4.0625 1.0625 C-3.0625 0.0625 -3.0625 0.0625 0 0 Z " fill="#05A2B0" transform="translate(297.0625,60.9375)"/>
<path d="M0 0 C1.32 0 2.64 0 4 0 C4 0.66 4 1.32 4 2 C3.34 2 2.68 2 2 2 C2 3.65 2 5.3 2 7 C1.34 7 0.68 7 0 7 C0 4.69 0 2.38 0 0 Z " fill="#7E7E7E" transform="translate(268,221)"/>
<path d="M0 0 C2.475 0.495 2.475 0.495 5 1 C5 1.33 5 1.66 5 2 C7.97 2.495 7.97 2.495 11 3 C11 3.33 11 3.66 11 4 C9.741875 4.04125 8.48375 4.0825 7.1875 4.125 C6.47980469 4.14820313 5.77210938 4.17140625 5.04296875 4.1953125 C3 4 3 4 0 2 C0 1.34 0 0.68 0 0 Z " fill="#3680BD" transform="translate(339,165)"/>
<path d="M0 0 C0.66 1.32 1.32 2.64 2 4 C1.01 4.99 0.02 5.98 -1 7 C-2 6 -2 6 -2.0625 3.4375 C-2.041875 2.633125 -2.02125 1.82875 -2 1 C-1.34 0.67 -0.68 0.34 0 0 Z " fill="#0068D3" transform="translate(261,158)"/>
<path d="M0 0 C0 0.66 0 1.32 0 2 C-2.64 2.33 -5.28 2.66 -8 3 C-8.33 2.34 -8.66 1.68 -9 1 C-5.8035914 -0.06546953 -3.34252724 -0.07427838 0 0 Z " fill="#0859B1" transform="translate(271,155)"/>
<path d="M0 0 C0.66 0 1.32 0 2 0 C2.36923077 5.53846154 2.36923077 5.53846154 0.5 7.875 C-0.2425 8.431875 -0.2425 8.431875 -1 9 C-1 5.88772805 -0.54372951 3.05847848 0 0 Z " fill="#3383C6" transform="translate(240,144)"/>
<path d="M0 0 C0.66 0 1.32 0 2 0 C2 1.98 2 3.96 2 6 C0.68 5.67 -0.64 5.34 -2 5 C-1.34 3.35 -0.68 1.7 0 0 Z " fill="#0269CD" transform="translate(274,160)"/>
<path d="M0 0 C0.66 0.33 1.32 0.66 2 1 C1.34 2.65 0.68 4.3 0 6 C-0.99 6 -1.98 6 -3 6 C-3 4.68 -3 3.36 -3 2 C-2.01 1.34 -1.02 0.68 0 0 Z " fill="#0E75D5" transform="translate(368,147)"/>
<path d="M0 0 C2.97 0 5.94 0 9 0 C6 3 6 3 3.3125 3.1875 C2.1678125 3.0946875 2.1678125 3.0946875 1 3 C0.67 2.01 0.34 1.02 0 0 Z " fill="#0460B8" transform="translate(343,146)"/>
<path d="M0 0 C2.97 1.98 2.97 1.98 6 4 C3 5 3 5 -1 5 C-0.67 3.35 -0.34 1.7 0 0 Z " fill="#316BB5" transform="translate(117,124)"/>
<path d="M0 0 C0 1.32 0 2.64 0 4 C-1.65 4 -3.3 4 -5 4 C-5 3.01 -5 2.02 -5 1 C-2 0 -2 0 0 0 Z " fill="#E9F2F6" transform="translate(138,117)"/>
<path d="M0 0 C0.99 0.33 1.98 0.66 3 1 C2.67 2.32 2.34 3.64 2 5 C1.67 4.67 1.34 4.34 1 4 C-0.99958364 3.95919217 -3.00045254 3.95745644 -5 4 C-5 3.34 -5 2.68 -5 2 C-3.35 2 -1.7 2 0 2 C0 1.34 0 0.68 0 0 Z " fill="#115EAC" transform="translate(302,104)"/>
</svg>
